<svg version="1.2" xmlns="http://www.w3.org/2000/svg" viewBox="0 0 225 258" width="225" height="258">
	<title>ByteJutsu-logo-image-only-svg</title>
	<style>
		.s0 { fill: #ffffff } 
		.s1 { fill: #000000 } 
		.s2 { fill: #ffb41d } 
		.s3 { fill: #fcee09 } 
		.s4 { fill: none } 
	</style>
	<path class="s0" d="m73.5 73.4l-10.3 15.6c0 0-12.6 26.8-12.3 26.9 0.3 0.1 7.7 6.5 7.7 6.5l19.8 8.3c0 0 17.8-27.1 17.9-27.3 0.1-0.2 8.6-16.6 8.6-16.6l-30.4-14.3z"/>
	<g>
		<path fill-rule="evenodd" class="s1" d="m224.9 253.4v0.2c0 0.2-1.1 0.2-1.7 0.4-3.6 1.1-7 2.3-10.6 3.5-0.5 0.2-1 0-1.4-0.2-5.2-1.9-10.2-4.3-15.2-6.6-9.2-4.3-18.1-9.2-26.9-14.3-2.4-1.4-65.7-42.3-65.7-42.3-2.2-1.5-4.4-3-6.7-4.6-0.4 0.7-0.8 1.3-1.2 2-1.4 2.2-1.4 1.7-3.4 1.1-0.9-0.3-1.1-0.8-0.8-1.6q0.4-0.9 0.9-1.8c0.2-0.4 0.5-0.8 0.6-1.2-1.1 0.4-1.9 1.3-3 2-1.7-0.9-3.4-1.8-5.1-2.8q-3.3-2-6.6-3.9c-0.5-0.4-1.1-0.7-1.6-1-1.1-0.7-1.9-1.6-2.4-2.8-0.4-1.1-0.9-2.2-1.5-3.5-0.2 0.5-4.5-12.8-4.5-12.8l-41.7-30.8c0-0.3-0.2-0.5-0.7-0.9-0.7-0.6-1.6-1.1-2.4-1.7-6.2-4.4-12.3-8.7-18.5-13.1-0.8-0.5-1.5-1.2-2.2-1.8 0.1-0.2 0.1-0.3 0.2-0.4 1.4-1.7 2.7-3.4 4.1-5 0.9-0.9 1-0.9 2-0.2 1.1 0.7 2.1 1.5 3.2 2.3 5.4 3.7 10.9 7.5 16.3 11.2 0.5 0.3 0.7 0.4 1 0.2 0.2-0.1 0.3-0.2 0.5-0.5 0.6-0.8 1.1-1.6 1.6-2.5 0.1-0.2 0.1-0.3 0.2-0.4 0.1-0.2 0.2-0.3 0.3-0.5 2.9-4.7 7.6-12.2 14.6-19.7l0.1-0.1c4.9-5.1 10.4-9.5 16.3-13.5 0.1-0.1 0.2-0.1 0.3-0.2 1.2-0.8 2.3-1.5 3.4-2.2 0.3-0.1 0.6-0.3 1.1-0.3l-0.1 0.1c0 0.1-0.1 0.2-0.2 0.4-0.1 0.1-0.1 0.2-0.2 0.3 0 0-0.1 0.1-0.1 0.2-0.1 0.3-0.3 0.5-0.5 0.8-0.2 0.3-0.5 0.8-0.9 1.4-6.2 9.5-12.3 19-18.5 28.5-1.6 2.5-3.1 5-4.7 7.5l-0.1 0.1c-0.2 0.4-0.4 0.7-0.7 1.2l-3.5 5.7 20.7 14.2v-0.1c0 0.1 0 0.2 0.1 0.3 0 0.1 0.1 0.2 0.2 0.3 0.2 0.4 0.5 0.7 0.8 1.1 0.8 1.2 1.7 2.3 2.5 3.4 2.8 3.7 5.7 7.3 8.5 10.9 0.3 0.4 0.6 0.8 1 1.2 3.2-1.6 6.2-3.2 9.3-4.8-0.1-0.3-0.1-0.7-0.2-1-1.3-4.4-2.6-8.7-3.9-13.1-0.2-0.7-0.5-1.1-1-1.5-0.1-0.1-0.2-0.1-0.3-0.2-0.1-0.1-0.2-0.1-0.3-0.2q-1.7-0.9-3.3-1.8c-0.5-0.3-1.1-0.6-1.6-0.9-1.7-0.9-3.3-1.8-4.9-2.7-0.2-0.2-0.4-0.3-0.6-0.4-0.6-0.4-1.2-0.8-1.8-1.1q-0.5-0.3-0.6-0.3l1-2.5-9.4-3.6v-0.1c-0.5-2.8-1-5.6-1.6-8.4-0.1-0.4-0.1-0.7-0.2-1.1 0.6 0.2 0.9 0.4 1.3 0.6 6.7 3.4 13.3 6.8 19.9 10.2 0.7 0.4 1.5 0.8 2.3 1.1 1.1 0.4 1.1 0.3 1.7-0.6l0.3-0.6c3.6-6.3 7.2-12.6 10.8-18.8 3.8-6.5 7.7-12.9 11.5-19.3 0.4-0.7 0.7-1.3 1.1-2.1-0.5-0.3-0.9-0.6-1.3-0.8-6-3-11.9-5.9-17.8-8.9-2.7-1.4-5.4-2.7-8.1-4.1-0.3-0.1-0.7-0.3-1.1-0.6 0.6-0.9 1.1-1.7 1.7-2.5 0.3-0.6 0.7-0.6 1.3-0.3 1.4 0.7 2.9 1.4 4.3 2.1 0.7 0.4 1.2 0.4 1.9 0.1q4.6-2.3 9.3-4.5c0.5-0.3 1.1-0.6 1.8-1-0.5-0.2-0.9-0.4-1.3-0.6q-6.9-2.9-13.8-5.7c-0.5-0.2-0.9-0.4-1.5-0.6 0.1-0.4 0.1-0.7 0.3-0.9 0.3-0.4 0.7-0.9 1-1.3 3.4-4.2 6.8-8.5 10.2-12.7 0.2-0.2 0.3-0.4 0.5-0.6 0.5-0.5 1-0.8 1.7-0.6 0.2 0.1 0.5 0 1 0-0.2-0.4-0.3-0.7-0.5-0.9-0.5-0.4-0.4-0.9-0.1-1.4 0.3-0.5 0.5-1 0.9-1.5 1.5-1.9 3-3.9 4.5-5.8 0.2-0.3 0.4-0.5 0.6-0.7 0.5-0.5 1-0.8 1.8-0.5h0.9c2.1-5.1 5-9.5 9.9-12.3-0.1-0.3-0.1-0.4-0.2-0.5-2.5-3.7-4.9-7.4-7.5-11-1.8-2.6-3.8-5.2-5.7-7.7-0.3-0.4-0.8-0.6-0.7-1.6h0.2c0.3 1 0.7 0.4 1 0.5q9.9 3.6 19.8 7.2c0.8 0.3 1.6 0.7 2.6 1.1-0.4 0.3-0.7 0.5-1 0.7-0.8 0.5-1.5 0.9-2.2 1.4-0.9 0.6-1.2 1.3-1 2.4 0.5 2.8 1 5.7 1.6 8.5 0.8 3.6 2.3 6.9 4.4 10 1.5 2.2 3.2 4.2 5.3 5.8 1 0.8 2.1 1.4 3.1 2 0.9 0.6 2 0.6 3.1 0.4q2.1-0.3 3.9-1.5c1.1-0.7 2-1.6 2.6-2.7 0.8-1.5 1.5-2.9 2.2-4.3 0.2-0.3 0.2-0.6 0.4-1.1-0.5 0.4-0.9 0.7-1.2 1-1.6 1.6-3.7 2.4-5.9 2.8-1.1 0.2-2.2 0-3.3-0.4-4.5-1.8-7.6-4.9-9.6-9.2-0.5-1.1-0.9-2.2-1.3-3.3-0.2-0.5-0.3-1.1-0.4-1.6-0.3-1.3 0-1.7 1.3-1.8 4.9-0.5 8.9 1.3 12.3 4.7 1.8 1.9 3.2 4 3.8 6.6 0.1 0.2 0.2 0.4 0.4 0.8 0.2-0.2 0.5-0.4 0.6-0.6 1.1-1.8 2-3.7 2.2-5.8 0.3-2.3 0.3-4.7 0.4-7 0.2-2.7-1.1-4.6-3.1-6.2-0.3-0.3-0.6-0.5-1-0.9 0.4-0.3 0.7-0.6 1.1-0.8 2.8-1.5 5.6-2.9 8.4-4.3 0.3-0.1 0.6-0.2 1-0.3v1.1c-0.3 5.8-0.4 11.7-0.7 17.5-0.1 2.6-0.2 5.3-0.9 7.8-1 3.7-2.5 7.1-4.9 10.1-0.3 0.5-0.6 1-1 1.6 0.5 0.1 0.7 0.2 1 0.2 0.7-0.1 1.4-0.2 2-0.4 0.6-0.2 1 0 1.2 0.5 0 0.1 0.1 0.1 0.1 0.2 0.9 2.6 1.7 5.2 2.3 7.9-1.9 1.2-4.1 1.2-5.9 2.6 1.7 6.1 3.4 12.5 5.2 18.3l-18-0.6c-0.1 2.3 0.3 3.7 1.7 4.8 0.6 0.5 1 1.2 1.6 1.8-0.4 0 2.5 1.7 2.8 1.9 3.2 2.2 6.3 4.5 9.5 6.7 0.4 0.3 0.7 0.6 1.1 0.9 0.8 0.7 1.2 1.5 1.5 2.5 4.7 17.3 9.4 34.7 14.1 52 0.1 0.5 0.3 1.1 0.4 1.6 0.3 0.8 0.2 0.9-0.5 1.3-0.7 0.4-1.4 0.7-2.2 1-1.6 0.7-1.8 1-0.7 2.5 1.6 2.2 3.2 4.3 4.8 6.5 0.5 0.6 0.9 1.2 1.1 1.9 1.1 3.4 2.2 6.8 3.2 10.2 2 6.4 3.9 12.7 5.9 19.1 0.6 1.6 1.2 3.3 1.8 4.9 0.3 0.7 0.3 1.4-0.3 2-2.1 2.3-4.4 4.5-6.9 6.4-0.4 0.3-0.9 0.3-1.3 0.2-2.4-0.8-4.7-1.5-7-2.3-0.6-0.2-0.8-0.6-0.8-1.1-0.1-2-0.2-4.1-0.4-6.1-0.2-1.4 0.1-2.6 1.1-3.7 0.6-0.6 0.9-1.3 1.4-2 0.4-0.5 0.3-0.9 0-1.3-0.5-0.6-0.9-1.3-1.4-1.9-2.7-3.2-5.4-6.5-8.1-9.7-0.4-0.4-0.8-0.9-1.6-1.2 0.1 0.4 0 0.8 0.1 1.1 0.6 2.9 1.2 5.9 1.8 8.9 1.5 7.7 3 15.3 4.5 22.9 0.6 2.8 1.1 5.5 1.7 8.2 0.5 2.2 0.9 4.4 1.4 6.6 0.2 0.6 0.3 1.2 0.9 1.5 2.8 1.6 5.5 3.3 8.3 4.9 0.2 0.2 0.4 0.2 0.7 0.3l14.5 8.1c12.7 7.1 25.8 13.1 39.1 18.7 1.5 0.6 4 1.4 3.4 2.4zm-92.1-202.3q0.4 0.5 0.9 0.6c0.5 0.2 1.1 0.2 1.7 0.1 0.1 0 0.2 0 0.3-0.1 0.1 0 0.2 0 0.3-0.1 0.2-0.1 0.4-0.3 0.6-0.4 0.1-0.1 0.2-0.1 0.3-0.2 0.1-0.2 0.3-0.4 0.5-0.6 0.1-0.1 0.1-0.2 0.2-0.3 0.1-0.3 0.3-0.5 0.4-0.7 0.2-0.3 0.3-0.5 0.4-0.8 0.1-0.1 0.2-0.3 0.2-0.4 0.1-0.3 0.2-0.6 0.2-0.9-1.7 1.6-3.6 2.1-5.6 2.6-0.7 0.2-0.8 0.7-0.4 1.2zm-11.5 33.7c-2-2.6-4.1-5.2-6.2-7.8-0.7-0.9-1.4-1.7-2.1-2.6-0.2-0.3-0.5-0.5-0.7-0.8l-0.7-0.7c-0.5-0.4-1-0.9-1.4-1.4-1.9-2-3.8-4-5.6-6q-0.1-0.1-0.2-0.2c-0.1-0.1-0.2-0.3-0.4-0.5q-0.2-0.1-0.3-0.3c-0.7 1-1.2 1.9-1.8 2.8q-0.1 0.1-0.1 0.2c-0.1 0.2-0.1 0.4 0 0.5 0.1 0.1 0.1 0.2 0.2 0.3 0.6 0.7 1.1 1.5 1.7 2.2 4.2 5.3 8.4 10.5 12.5 15.9 5.6 7.4 11.1 14.9 16.6 22.4 0.8 1 1.5 2.1 2.2 3.1 0.1 0.1 0.1 0.3 0.2 0.4 0.1 0.1 0.1 0.5 0.2 0.5h0.3c0.1-1 0.1-0.8 0.2-1 0.2-0.8 0.4-1.8 0.7-2.5 0.7-1.5 0.3-2.8-0.7-4.1-2.6-3.5-5.2-7-7.7-10.6-2.4-3.3-4.6-6.6-6.9-9.8zm-6.6-25.9c0 0.7 0.4 1.5 0.5 2.3 0.1 0.4 0.4 1 0.8 1.3 0.6 0.5 1.1 0.9 1.7 1.3 0.1 0.1 0.1 0.1 0.2 0.2 0.1 0.1 0.2 0.1 0.3 0.2 1 0.6 2.1 1.3 3.3 2h0.1c0 0 0 0.1 0.1 0.1q0 0 0.1 0.1l0.3-8.8c0-0.4-1.1-0.7-1.7-1.1-0.7-0.4-1.1-0.7-1.7-1.1-1.2-0.7-2.5-1.4-3.7-2.1-0.5 1.8-0.3 3.6-0.3 5.6zm0.3-5.6q0 0-0.1 0c0-0.1-0.1-0.1-0.1-0.1q0 0 0 0.1 0 0-0.1-0.1 0 0 0 0.1c0 0.1 0.2 0.1 0.3 0zm-0.3-0.1c0 0 0 0 0 0q0 0 0 0zm7.1 13.2q0 0.1 0.1 0.1v-0.1q-0.1 0-0.1 0zm0.1 0.1v0.2h0.3c-0.1-0.1-0.2-0.2-0.3-0.2zm-7.1-13.3q0 0 0.1 0 0 0 0 0.1-0.1 0-0.1-0.1zm2.6-6.1c0.2 0.2 0.4 0.5 0.6 0.8 0.4 0.6 0.9 1.1 1.3 1.6l0.7 0.7c0.9 0.9 2 1.6 3.5 1.9 0.3 0.1 0.6 0.1 0.9 0.1h0.6c0.3 0 0.5 0 0.7-0.1 0.1-0.1 0.3-0.1 0.5-0.2h0.1c0.2-0.1 0.3-0.1 0.4-0.2 0-0.1 0.1-0.1 0.1-0.1 0.2-0.2 0.5-0.3 0.7-0.5 0.1 0 0.1-0.1 0.1-0.1l0.1-0.1c0.1 0 0.1-0.1 0.1-0.2v-0.2c0.1-0.1-0.1-0.1-0.1-0.2v-0.1c0-0.1-0.3-0.4-0.6-0.4-2.5-0.3-4.8-1.1-7.1-2.2-0.7-0.4-1.5-0.7-2.6-0.5zm-2.7-5.8c0-0.2 0.1-0.4 0.1-0.5v-0.1c0-1.1 0.1-2.2 0.1-3.3q0.1-3.3 0.3-6.6c0-0.3 0-0.6-0.1-0.9-0.2-0.8-0.5-1.5-0.9-2.2q-0.2-0.3-0.3-0.6-0.2-0.3-0.3-0.6c-0.6-0.9-1.2-1.8-1.9-2.6-0.9 0.5-2.2 2.1-3.5 3.9-0.4 0.5-0.7 1-1 1.5-0.1 0.2-0.3 0.4-0.4 0.6-0.5 0.6-0.9 1.3-1.2 2-0.2 0.3-0.3 0.5-0.4 0.8-0.1 0.2-0.2 0.5-0.3 0.7-0.1 0.3-0.1 0.5-0.2 0.7v0.6c3 2.3 6 4.5 10 6.6zm-19.4 1.6c0.9 1 8.6 4.9 11.4 6.9 0.3-2 0.7-1.2 1.1-1.7 1.1-1.5 2.3-3.2 3.5-4.7q-0.6-0.6-1.2-0.9c-3-1.7-6-3.3-9.1-5-0.2-0.2-0.3-0.2-0.5-0.3-0.2 0-0.3-0.1-0.4-0.1-0.2 0-0.3 0-0.5 0.1-0.3 0.1-0.5 0.3-0.8 0.7-1 1.3-1.9 2.5-2.9 3.7-0.2 0.3-0.4 0.9-0.6 1.3zm2.3 20.8c2.3-3.5 4.6-7 7-10.6-0.2-0.1-0.3-0.2-0.4-0.3-3.4-1.9-6.9-3.7-10.3-5.5-1.1-0.6-1.3-0.5-2 0.4-2.4 3.1-4.7 6.2-7.1 9.3-0.1 0.2-0.2 0.3-0.3 0.5 0 0.1-0.1 0.1-0.1 0.2 0.6 0.5 11.6 5.5 13.2 6zm3.9 35.4c0 0.3 0 0.5 0.1 0.7 0 0.1 0.1 0.2 0.1 0.3 0 0.3 0.1 0.7 0.2 1 0.6 3 1.1 5.9 1.7 8.9 0.2 1.3 0.4 2.5 0.7 3.8 0.3 1.3 0.5 2.5 0.8 3.8 0.3 1.2 0.5 2.5 0.8 3.8 0.3 1.6 0.6 3.2 1 4.8 1 4.8 2.2 9.6 3.3 14.4 0.1 0.3 0.2 0.2 0.3 1.2 1.4 0 5.9 0.3 6.8 0v-1c-0.4-2.1-0.8-4.1-1.2-6.2-0.1-0.7-0.3-1.4-0.4-2.1-1.4-6-2.7-12-4.1-18-0.1-0.5-0.1-0.9-0.2-1.4 0.1 0 0.1-0.1 0.2-0.1h0.1c0.2 0.4 0.6 0.8 0.9 1.2 2.5 4.3 5.2 8.6 7.7 12.9 2.6 4.5 5.7 9 8.3 13.6 0.1 0.1 1 0.2 1 0.3 0 0.4-0.3 0.7 0 0.7 0.2 0 0.5 0.2 0.7 0.2 5 0.2 9.5 0.5 14.5 0.7h1.4c0 0 0.4-0.1 0.4-0.2-2-0.5-0.6-0.5-0.7-0.7-4.8-10.1-10.4-20.1-16.6-29.4-7.7-11.8-16.1-23.2-25.1-34.1-1.7-2.1-3.5-4.3-5.5-6.4 0-0.2-0.1-0.3-0.3-0.5-0.6-0.6-0.7-0.7-1.1-0.8-0.1 0-0.1 0.2-0.2 0.2-0.1 0-0.1-0.2-0.2-0.2-0.1 0-0.2-0.3-0.3-0.2-0.2 0-0.5 0.1-0.8 0.3-2.3 1.2-4.5 2.3-6.8 3.5-0.3 0.1-0.5 0.4-0.8 0.6 0.2 0.6 0.7 0.7 1.1 0.9 1.2 0.6 2.4 1.3 3.6 1.9 0.5 0.4 1.1 0.7 1.7 1 4.4 2.2 8.7 4.4 13 6.6 0.1 0.1 0.2 0.1 0.3 0.2 0.1 0.1 0.2 0.2 0.4 0.3-0.3 0.6-0.6 1.2-0.9 1.7-1.5 2.6-3 5.1-4.5 7.7-0.5 0.9-1.2 1.9-1.4 2.9zm24.4 76.5c0.7-1.4 0.9-2.9 1.2-4.4 0.8-4.1 1.6-8.1 2.4-12.2 0.4-1.7 0.4-3.3-0.4-4.9q-0.3-0.5-0.6-0.9c-0.5-0.6-1.1-0.8-1.7-0.4-1.3 0.9-2.5 1.9-2.9 3.5-1.2 5-2.4 9.9-3.7 14.9-0.2 0.6-0.3 1-0.3 1.3v0.7l0.2 0.2c0.1 0.1 0.2 0.1 0.3 0.2q0.3 0.1 0.6 0.3c0.2 0.1 0.5 0.2 0.8 0.3 1.1 0.4 2.1 0.8 3.2 1.2 0.3 0.1 0.6 0.3 0.9 0.2zm-32.3-35.2c0.4 0 0.7 0.1 1.1 0.1 0.4 0.1 0.8 0.1 1.2 0.1 0.6 0.1 1.4 0.1 2 0.1 2.2 0.1 3.8 0.1 6.8 0.1-2-4.7-4-9.3-6.1-13.9-1.7 4.5-3.5 8.9-5 13.5zm-4.7 15.3h0.4c2.2 0.1 4.4 0.3 6.6 0.4 0.3 0 0.5 0.1 0.7 0.1v0.1c0.5 0.1 0.9 0.3 1.4 0.3 0.4 0 0.8 0.3 1.2 0.3 1 0 2.1-0.2 3.2-0.1 1.8 0.1 3.6-0.1 5.4 0 3.6 0.1 7.3 0.3 11 0.4 0.6-3.3 0.8-3.6 3.8-6.8l0.1-0.1h-0.2c0-0.1-0.2-0.1-0.2-0.1v-0.1c-10.8-0.4-21.6-0.9-32.4-1.3h-0.1v0.1l-0.1 0.1v-0.2h-0.2l-0.4 0.3zm2.4 12.3c0-0.3-0.1-0.8-0.3-1l-3-3c-1-1-2-1.9-3-2.9h-0.4c-2.6 1.2-5.1 2.4-7.6 3.7-0.3 0.1-0.6 0.3-0.8 0.5-0.1 0.1-0.3 0.3-0.4 0.5l-0.1 0.1c-0.1 0.2-0.2 0.5-0.3 0.8-0.1 0.3-0.1 0.6-0.1 1 0 0.9-0.1 1.8-0.1 2.7 0 0.7 0.3 1.1 0.9 1.4 1 0.5 1.9 1 2.9 1.6 3.5 2.1 7.1 4.1 10.7 6.2 0.1 0.1 0.3 0.1 0.5 0.2 0.5-1.6 0.6-3.2 0.7-4.8 0.2-2.4 0.3-4.8 0.4-7zm21.9 3.9c0.2-0.4 0.3-0.8 0.4-1.2-0.3-0.1-0.5-0.3-0.7-0.4-4.9-2.2-9.7-4.4-14.6-6.6-0.6-0.2-1.1-0.4-1.7-0.6q-1.1-0.3-1.8 0.3c0.1 0.9 0.5 1.5 1.1 2q0.7 0.7 0.6 1.8c-0.1 0.7-0.2 1.3-0.3 2.1 0.6 0.4 1.1 0.7 1.7 1 0.6 0.3 1.2 0.6 1.7 1l0.3 0.3c0.1 0.2 0.2 0.3 0.3 0.5 0.1 0.1 0.1 0.2 0.1 0.3 0 0.2 0 0.4-0.1 0.6 0 0.2-0.1 0.3-0.2 0.5-0.5 0.8-1.1 1.6-1.6 2.4-0.2 0.2-0.3 0.4-0.5 0.7 0.6 0.5 1.1 1.1 1.7 1.7 0.4-0.6 0.7-1.1 1-1.5 0.4-0.6 0.8-1.2 1.2-1.7 0.5-0.7 1.2-0.8 2-0.5 0.6 0.2 1.1 0.5 1.6 0.8q0.3 0.1 0.6 0.3c-0.5 0.9-1 1.7-1.4 2.5-0.2 0.5-0.5 0.9-0.7 1.4-0.5 0.9-0.3 1.6 0.4 2.2 1.1 0.9 2.3 1.8 3.5 2.7 0.6 0.4 0.9 0.5 1.2 0.1 0-0.1 0.1-0.3 0.2-0.5 0 0 0.1-0.1 0.1-0.2 1.1-3.7 2.1-7.3 3.2-10.9 0.1-0.4 0.2-0.8 0.7-1.1zm29 37l0.7-19.6v-0.2c0 0.1-0.3 0.2-0.5 0.3-1.8 1.3-3.5 2.5-5.3 3.8-1.4 1-2.7 1.9-4.1 2.8-0.2 0.1-0.4 0.1-0.6 0.2-0.1 0.1-0.3-0.1-0.4 0-0.1 0.1-0.3-0.1-0.4-0.1-0.1 0-0.2-1.3-0.2-2v-7.3c0-0.1-0.1-0.2-0.1-0.3 0-0.1-0.1-0.1-0.1-0.2l-0.1-0.1c-0.1-0.1-0.2-0.1-0.3-0.2-3.5-2-6.9-4-10.4-6 0-0.1 0-0.1-0.1-0.1-0.1 0-0.1-0.1-0.2-0.1q-0.1-0.1-0.2-0.1c0 0-0.1-0.1-0.2-0.1-0.1 0.4-0.1 0.7-0.2 1.1 0 0.3-0.1 0.7-0.1 1-0.3 3.2-0.4 6.3-0.7 9.5v0.5c0 0.1 0.1 0.2 0.1 0.3 0 0.1 0 0.2 0.1 0.3 0.1 0 0.1 0.1 0.2 0.2 0.1 0.2 0.2 0.3 0.4 0.4 4.2 2.9 8.4 5.9 12.6 8.9 0.3 0.2 0.5 0.4 0.8 0.6 2.3 1.6 4.5 3.2 6.8 4.8 0.8 0.6 1.3 1.1 2.4 1.7zm1.8-34.9c-0.2-1.7-0.4-3.2-0.7-4.8-0.3-1.6-0.5-3.3-0.8-5-0.3-1.6-0.6-3.3-0.9-5-0.3-1.6-0.7-3.1-1.2-4.7-0.7-2.6-2.4-3.8-5-3.9-0.5-0.1-1-0.1-1.7-0.1 0.4 0.7 0.6 1.3 0.8 1.8 0.6 1.6 1.2 3.2 1.3 4.9 0 0.1 0 0.3 0.1 0.4 0.9 1.6 0.6 3.5 0.8 5.2 0.4 3.9 0.9 7.7 1.3 11.6 0 0.3 0 0.5 0.1 0.7 0 0.3 0.1 0.5 0.2 0.6 0.1 0 0.1 0.1 0.2 0.1q0.1 0.1 0.6 0 1-0.2 2.1-0.6c0.2-0.1 0.5-0.2 0.7-0.3q1-0.5 2.1-0.9zm3.3-21.9v-0.4q0-0.1-0.1-0.2c0 0 0-0.1-0.1-0.1-0.1 0-0.2-0.1-0.3-0.1h-0.1c-0.1 0-0.3-0.1-0.5-0.1-0.4 0-0.8-0.1-1.2-0.1-0.2-0.1-0.5-0.1-0.7-0.1 0.5 0.8 1 1.7 1.4 2.5 0.4 0.8 0.8 1.7 1.3 2.5 0.2-0.6 0.3-0.9 0.3-1.3 0.1-0.9 0.1-1.8 0-2.6z"/>
		<path class="s2" d="m46.8 99.2c-7 7.5-11.7 15-14.6 19.7 2.7-4.7 5.6-9.2 9-13.4 1.8-2.2 3.7-4.3 5.6-6.3z"/>
		<path class="s0" d="m88.1 74.8c0.2 0.6 0.7 0.7 1.1 0.9 1.2 0.6 2.4 1.3 3.6 1.9 0.6 0.3 1.2 0.7 1.7 1 4.3 2.2 8.7 4.4 13 6.6 0.2 0.1 0.4 0.3 0.7 0.5-0.3 0.6-0.6 1.2-0.9 1.7-1.5 2.6-3 5.1-4.5 7.7-0.5 0.9-1.2 1.9-1.4 2.9-0.2 1 0.3 2.1 0.5 3.2 1.3 6.8 2.6 13.5 4 20.3 1.4 6.4 2.9 12.7 4.4 19q0.1 0.4 0.3 0.9c1.4 0.4 5.9 0.5 6.8 0.3v-0.7c-0.5-2.8-1-5.5-1.6-8.3-1.3-6-2.7-12-4.1-18-0.1-0.5-0.2-0.9-0.2-1.4 0.1 0 0.1-0.1 0.2-0.1 0.3 0.4 0.6 0.8 0.8 1.2q3.7 6.5 7.5 12.9c2.6 4.5 5.3 9.1 7.9 13.7 0.4 0.7 0.9 1.1 1.8 1.1 5 0.1 10 0.3 15 0.5h1.2c-0.1-0.4-0.2-0.6-0.3-0.8-4.9-10.1-10-20-16.2-29.4-7.8-11.8-16-23.2-25-34.1-1.8-2.1-3.6-4.3-5.3-6.4-0.2-0.2-0.3-0.4-0.5-0.6-1.1-1.1-1.4-1.2-2.8-0.5-2.3 1.1-4.6 2.3-6.8 3.5-0.4 0.1-0.7 0.3-0.9 0.5z"/>
		<path class="s0" d="m81.6 155.5c-3.1 1.6-6.1 3.2-9.3 4.8-0.4-0.4-0.7-0.8-1-1.2-2.8-3.6-5.7-7.2-8.5-10.9-0.8-1.1-1.7-2.2-2.5-3.4-0.3-0.4-0.5-0.7-0.8-1.1-0.1-0.1-0.2-0.2-0.2-0.3-0.1-0.1-0.1-0.2-0.1-0.3-0.1-0.2-0.1-0.4-0.1-0.7 0-0.2 0.1-0.5 0.1-0.7 0.1-0.2 0.1-0.4 0.2-0.6 0.1-0.2 0.1-0.4 0.2-0.6 1-2.5 2-5 3-7.4 0-0.1 0.1-0.1 0.1-0.2 0.1-0.1 0.1-0.2 0.1-0.3l0.1-0.1 0.1-0.1c0.1-0.1 0.3-0.1 0.5-0.1q0.1 0 0.6 0.3c0.6 0.3 1.2 0.7 1.8 1.1q0.3 0.2 0.6 0.3c1.6 0.9 3.2 1.8 4.9 2.8 0.5 0.3 1.1 0.6 1.6 0.9q1.6 0.9 3.3 1.8c0.2 0.1 0.4 0.2 0.5 0.3 0.5 0.4 0.8 0.8 1 1.5 1.3 4.4 2.6 8.7 3.9 13.1-0.2 0.4-0.1 0.8-0.1 1.1z"/>
		<path class="s0" d="m142.5 208.9c0.2-6.8 0.5-13.4 0.7-20.1-0.3 0.1-0.5 0.2-0.7 0.3-1.8 1.3-3.6 2.5-5.5 3.8-1.4 1-2.7 1.9-4.1 2.8-0.4 0.3-0.8 0.4-1.4 0.7-0.1-0.9-0.2-1.6-0.2-2.3v-7.2c0-0.5-0.1-0.9-0.6-1.2-3.5-2-6.9-4-10.4-6-0.2-0.1-0.4-0.2-0.7-0.3-0.1 0.8-0.3 1.5-0.3 2.1-0.2 3.2-0.4 6.4-0.7 9.5-0.1 0.8 0.2 1.3 0.9 1.8 4.2 3 8.4 6 12.6 8.9 2.6 1.8 5.2 3.6 7.8 5.5 0.8 0.5 1.7 1 2.6 1.7z"/>
		<path class="s0" d="m135.6 112.3c0.3-1 0.5-2 0.9-2.9 0.7-1.6 0.3-2.8-0.7-4.2-2.6-3.5-5.1-7.1-7.7-10.6-2.3-3.3-4.6-6.6-7-9.7-2.7-3.5-5.5-7-8.4-10.4-0.8-1-1.9-1.9-2.8-2.9-1.9-2-3.7-4-5.6-6-0.3-0.3-0.5-0.6-0.9-1-0.6 1-1.2 1.9-1.8 2.8-0.2 0.3-0.1 0.6 0.1 0.9 0.6 0.7 1.1 1.5 1.7 2.2 4.2 5.3 8.5 10.5 12.5 15.9 5.6 7.4 11.1 14.9 16.6 22.4 0.7 1 1.5 2.1 2.2 3.1 0.1 0.2 0.3 0.4 0.4 0.6 0.3-0.1 0.4-0.2 0.5-0.2z"/>
		<path class="s0" d="m89.5 149.1c-0.1 2.2-0.2 4.4-0.2 6.7 9.9 0.5 19.7 1.1 29.5 1.4 0.6-3.3 0.7-3.6 3.7-6.8v-0.1c0 0 0-0.1-0.1-0.1q-16.2-0.6-32.4-1.2c-0.2 0-0.3 0.1-0.5 0.1z"/>
		<path class="s0" d="m90.3 179.7c0.5-1.6 0.6-3.2 0.7-4.8 0.2-2.4 0.2-4.7 0.3-7.1 0-0.3-0.1-0.8-0.3-1-2-2-4-4-6-5.9h-0.4c-2.5 1.2-5.1 2.4-7.6 3.7q-1.8 0.9-1.8 3c0 0.9 0 1.8-0.1 2.7 0 0.7 0.3 1.1 0.9 1.4 1 0.5 1.9 1.1 2.9 1.6 3.6 2.1 7.2 4.1 10.8 6.2 0.2 0.1 0.3 0.1 0.6 0.2z"/>
		<path class="s0" d="m104.5 53.1c-0.2-0.1-0.3-0.2-0.4-0.3-3.4-1.8-6.8-3.7-10.3-5.5-1-0.6-1.2-0.5-2 0.4-2.4 3.1-4.8 6.2-7.1 9.3-0.2 0.2-0.2 0.4-0.4 0.6 0.6 0.5 11.6 5.5 13.1 6 2.4-3.5 4.8-7 7.1-10.5z"/>
		<path class="s0" d="m105.8 175.6c-0.5 0.9-0.9 1.7-1.4 2.5-0.2 0.5-0.5 0.9-0.7 1.4-0.4 0.8-0.3 1.6 0.4 2.2 1.1 0.9 2.3 1.9 3.5 2.7 0.9 0.6 1.2 0.5 1.5-0.6 1.1-3.6 2.1-7.2 3.2-10.9 0.2-0.8 0.5-1.5 0.7-2.4-0.3-0.2-0.5-0.3-0.7-0.4-4.8-2.2-9.7-4.4-14.6-6.6-0.5-0.2-1.1-0.4-1.7-0.6-0.6-0.2-1.2 0-1.8 0.3 0.1 0.9 0.5 1.5 1.1 2 0.6 0.5 0.7 1.1 0.6 1.8-0.1 0.7-0.2 1.3-0.3 2.1 0.6 0.3 1.1 0.6 1.7 1 0.6 0.3 1.2 0.6 1.7 1 0.8 0.6 1 1.2 0.5 2.1-0.5 0.8-1 1.6-1.6 2.4-0.1 0.2-0.3 0.4-0.5 0.7l1.7 1.7c0.4-0.5 0.6-1 0.9-1.5 0.4-0.6 0.8-1.2 1.2-1.7 0.5-0.7 1.2-0.8 2-0.5 1.2 0.5 1.9 0.9 2.6 1.3z"/>
		<path class="s0" d="m133.6 150.5c0.3 0.8 0.5 1.3 0.8 1.8 0.7 1.6 1.2 3.2 1.3 4.9 0 0.1 0 0.3 0.1 0.4 0.9 1.6 0.6 3.4 0.8 5.2 0.5 3.9 0.9 7.7 1.3 11.6 0 0.2 0 0.4 0.1 0.7 0.2 0.6 0.4 0.8 1 0.7q1-0.3 2.1-0.6c0.9-0.3 1.8-0.7 2.9-1.2-0.3-1.6-0.5-3.2-0.7-4.8-0.5-3.4-1.1-6.7-1.7-10.1-0.3-1.6-0.7-3.2-1.2-4.7-0.8-2.6-2.4-3.8-5-3.9q-0.8 0.1-1.8 0z"/>
		<path class="s0" d="m126 175.8c0.6-1.5 0.9-3 1.2-4.5 0.8-4.1 1.6-8.1 2.4-12.2 0.3-1.7 0.4-3.3-0.4-4.9-0.2-0.3-0.3-0.7-0.6-0.9-0.5-0.6-1-0.8-1.7-0.4-1.3 0.8-2.5 1.8-2.9 3.5-1.3 4.9-2.5 9.9-3.7 14.8-0.5 2.2-0.6 2.2 1.6 3 1.3 0.6 2.7 1.1 4.1 1.6z"/>
		<path class="s0" d="m111.7 23.8c-2.1 1.2-6.5 7.8-7.3 10.9 3.2 2.3 6.6 4.4 10.2 6.4 0.1-0.3 0.2-0.4 0.2-0.6 0.1-3.3 0.3-6.6 0.4-9.9 0-0.3 0-0.6-0.1-0.9-0.6-2.2-2-4.1-3.4-5.9z"/>
		<path class="s0" d="m111.4 43.4c-0.5-0.3-0.8-0.7-1.2-0.9-3-1.7-6.1-3.4-9.1-5-1.1-0.6-1.4-0.5-2.2 0.4-1 1.2-1.9 2.4-2.9 3.7-0.2 0.3-0.4 0.7-0.6 1 0.9 1.1 8.6 5.5 11.4 6.6 1.4-1.8 3-3.8 4.6-5.8z"/>
		<path class="s0" d="m98.5 126.9c-1.7 4.5-3.5 9-5 13.7 3.7 0.3 7.2 0.3 10.9 0.2-1.9-4.7-3.8-9.3-5.9-13.9z"/>
		<path class="s0" d="m115.1 53.2c-0.3 2.7-0.4 5.3 0 7.9 0.1 0.5 0.3 1 0.7 1.3 2 1.7 4.3 2.8 6.6 4.3 0.1-3.2 0.2-6.2 0.3-9.1-2.5-1.4-5-2.9-7.6-4.4z"/>
		<path class="s0" d="m117.6 47.2c1.6 2.2 3.1 4.4 6.1 5 1.5 0.3 2.8-0.1 4-1 0.2-0.2 0.4-0.6 0.4-0.9 0-0.2-0.5-0.4-0.8-0.4-2.6-0.3-4.9-1.2-7.3-2.2-0.7-0.5-1.5-0.8-2.4-0.5z"/>
		<path class="s0" d="m138.8 47.3c-1.7 1.6-3.6 2.1-5.6 2.6-0.7 0.2-0.8 0.7-0.3 1.2 0.7 0.7 1.6 0.9 2.6 0.6 1.5-0.3 3.2-2.5 3.3-4.4z"/>
		<path class="s0" d="m147 155.9c0.1-0.5 0.2-0.9 0.3-1.3 0.1-0.9 0.1-1.8 0.1-2.6 0-0.5-0.2-0.9-0.7-0.9-0.7-0.1-1.4-0.1-2.4-0.2 1 1.8 1.8 3.3 2.7 5z"/>
	</g>
	<path class="s3" d="m203.9 168.9c-0.8 24-10.6 45.6-25.9 61.7l-11.4-6.4v-0.8c-1-3.9-2.1-7.8-3.1-11.7-0.7-2.5-0.5-3.1 1.8-4.3 4-2.2 8.1-4.4 12.2-6.7 1.1-0.6 2.2-1.3 3.3-1.9 1-0.6 1.1-0.7 0.7-1.9q-0.9-3.1-1.8-6.3c-3.8-13.9-7.6-27.7-11.4-41.5-1.6-5.8-3.1-11.6-4.8-17.3-2.9-10.2-5.6-20.4-8.5-30.6-1.2-4.5-2.5-8.9-3.8-13.4-0.4-1.2-0.8-2.5-1.2-3.7-0.2-0.8-0.6-1.3-1.3-1.7q-4.1-2.7-8.1-5.4c-0.4-0.2-0.7-0.5-1-0.9 38.7 12.9 65.8 50 64.3 92.8z"/>
	<path class="s3" d="m67.7 82.8l-0.1 0.1c0 0.1-0.1 0.2-0.2 0.4 0 0.1-0.1 0.1-0.2 0.3q-0.1 0.1-0.1 0.2c-0.2 0.2-0.3 0.5-0.5 0.8-0.2 0.4-0.6 0.9-0.9 1.4-5.3 8.3-14.7 25.1-17.1 28.9l4.4 2.2c0.4 1.1 1.1 4.3 1.8 9.2v0.1l9.4 3.6-1 2.5c-0.2-0.1-0.3-0.1-0.5 0.1 0 0-0.1 0-0.1 0.1l-0.1 0.1c-0.1 0.1-0.1 0.2-0.1 0.3 0 0.1-0.1 0.1-0.1 0.2-1 2.5-2 4.9-3 7.4-0.1 0.2-0.1 0.4-0.2 0.6-0.1 0.2-0.1 0.4-0.2 0.6-0.1 0.3-0.1 0.5-0.1 0.7 0 0.2 0 0.5 0.1 0.7v0.1l-20.7-14.2c0 0-7.8-5.3-8.8-6l-0.1-0.1q0.2-0.2 0.3-0.3c0.6-0.8 1.3-1.9 2.2-3.4 0.1-0.2 0.2-0.3 0.3-0.5 2.9-4.7 7.6-12.2 14.6-19.7l0.1-0.1c4.4-4.7 9.8-9.5 16.3-13.5 0.1-0.1 0.2-0.1 0.3-0.2 1.3-1 2.7-1.8 4.3-2.6z"/>
	<path class="s4" d="m-237 173.8l25.3 9.3"/>
	<path class="s4" d="m-186.8 199.1l10.5 3.9 0.3 0.1"/>
</svg>