<svg xmlns="http://www.w3.org/2000/svg" xmlns:xlink="http://www.w3.org/1999/xlink" width="2048" zoomAndPan="magnify" viewBox="0 0 1536 1535.999932" height="2048" preserveAspectRatio="xMidYMid meet" version="1.0"><defs><clipPath id="70e02b2875"><path d="M 105 1067.398438 L 292 1067.398438 L 292 1204 L 105 1204 Z M 105 1067.398438 " clip-rule="nonzero"/></clipPath><clipPath id="28b4097bde"><path d="M 287 1067.398438 L 504 1067.398438 L 504 1201 L 287 1201 Z M 287 1067.398438 " clip-rule="nonzero"/></clipPath><clipPath id="7cf67bdb51"><path d="M 509 1067.398438 L 686 1067.398438 L 686 1201 L 509 1201 Z M 509 1067.398438 " clip-rule="nonzero"/></clipPath><clipPath id="fce6577645"><path d="M 515 1249 L 692 1249 L 692 1382.398438 L 515 1382.398438 Z M 515 1249 " clip-rule="nonzero"/></clipPath><clipPath id="9de62cb07f"><path d="M 706 1249 L 895 1249 L 895 1382.398438 L 706 1382.398438 Z M 706 1249 " clip-rule="nonzero"/></clipPath><clipPath id="766691e7e2"><path d="M 916 1249 L 1108 1249 L 1108 1382.398438 L 916 1382.398438 Z M 916 1249 " clip-rule="nonzero"/></clipPath><clipPath id="d645da409b"><path d="M 304 1246 L 495 1246 L 495 1382.398438 L 304 1382.398438 Z M 304 1246 " clip-rule="nonzero"/></clipPath><clipPath id="090b6c39b1"><path d="M 336 38 L 1496.304688 38 L 1496.304688 1382 L 336 1382 Z M 336 38 " clip-rule="nonzero"/></clipPath></defs><g clip-path="url(#70e02b2875)"><path fill="#000000" d="M 282.464844 1138.105469 C 280.734375 1136.085938 278.425781 1134.355469 275.828125 1133.199219 L 276.40625 1132.621094 C 281.890625 1126.851562 285.351562 1118.769531 285.351562 1110.6875 C 285.351562 1087.3125 266.59375 1067.976562 242.929688 1067.976562 L 105.847656 1067.976562 L 105.847656 1175.621094 L 181.746094 1203.617188 L 254.761719 1202.75 C 274.960938 1202.75 291.125 1186.300781 291.125 1166.097656 C 291.414062 1154.554688 290.835938 1146.472656 282.464844 1138.105469 Z M 157.792969 1099.433594 L 218.6875 1099.433594 C 225.324219 1099.433594 230.808594 1104.339844 230.808594 1110.976562 C 230.808594 1117.613281 225.324219 1122.519531 218.6875 1122.519531 L 157.792969 1122.519531 Z M 224.746094 1171.582031 L 157.792969 1171.582031 L 157.792969 1148.496094 L 224.746094 1148.496094 C 231.386719 1148.496094 236.867188 1153.402344 236.867188 1160.039062 C 236.867188 1166.675781 231.097656 1171.582031 224.746094 1171.582031 Z M 224.746094 1171.582031 " fill-opacity="1" fill-rule="nonzero"/></g><g clip-path="url(#28b4097bde)"><path fill="#000000" d="M 437.726562 1067.6875 L 395.882812 1114.730469 L 353.460938 1067.6875 L 287.660156 1067.6875 L 368.464844 1150.226562 L 368.464844 1200.441406 L 420.410156 1200.441406 L 420.410156 1150.226562 L 503.527344 1067.6875 Z M 437.726562 1067.6875 " fill-opacity="1" fill-rule="nonzero"/></g><g clip-path="url(#7cf67bdb51)"><path fill="#000000" d="M 509.875 1067.6875 L 509.875 1105.207031 L 570.480469 1105.207031 L 570.480469 1200.441406 L 625.3125 1200.441406 L 625.3125 1109.824219 L 595.875 1102.320312 L 655.324219 1104.917969 L 685.914062 1104.917969 L 685.914062 1067.398438 L 509.875 1067.398438 Z M 509.875 1067.6875 " fill-opacity="1" fill-rule="nonzero"/></g><path fill="#000000" d="M 252.742188 1249.503906 L 154.910156 1249.503906 L 154.910156 1249.792969 L 230.230469 1277.496094 L 229.941406 1303.179688 L 229.941406 1330.597656 C 229.941406 1339.832031 222.4375 1347.335938 213.203125 1347.335938 L 169.050781 1347.335938 C 154.621094 1347.335938 150.867188 1332.90625 150.003906 1321.363281 L 105.847656 1321.363281 L 105.847656 1342.140625 C 105.847656 1363.496094 122.875 1381.679688 144.519531 1381.96875 L 234.847656 1381.96875 C 259.089844 1381.96875 281.890625 1364.652344 281.890625 1340.121094 L 281.890625 1260.46875 Z M 252.742188 1249.503906 " fill-opacity="1" fill-rule="nonzero"/><g clip-path="url(#fce6577645)"><path fill="#000000" d="M 515.648438 1249.503906 L 515.648438 1287.019531 L 576.25 1287.019531 L 576.25 1382.253906 L 631.082031 1382.253906 L 631.082031 1293.082031 L 595.875 1284.132812 L 655.324219 1286.730469 L 691.6875 1286.730469 L 691.6875 1249.214844 L 515.648438 1249.214844 Z M 515.648438 1249.503906 " fill-opacity="1" fill-rule="nonzero"/></g><g clip-path="url(#9de62cb07f)"><path fill="#000000" d="M 848.390625 1301.449219 L 776.820312 1301.449219 C 773.359375 1301.449219 762.96875 1300.582031 762.96875 1291.347656 C 762.96875 1282.113281 773.070312 1281.246094 776.820312 1281.246094 L 823.574219 1281.246094 C 830.5 1281.246094 836.847656 1284.132812 840.023438 1292.792969 L 893.410156 1292.792969 C 890.238281 1266.816406 869.746094 1249.503906 845.21875 1249.503906 L 755.753906 1249.503906 C 731.511719 1249.503906 709.003906 1258.449219 709.003906 1288.75 C 709.003906 1319.054688 731.511719 1330.308594 756.042969 1330.308594 L 827.324219 1330.308594 C 831.074219 1330.308594 841.175781 1331.175781 841.175781 1340.121094 C 841.175781 1349.066406 831.363281 1349.933594 827.324219 1349.933594 C 814.625 1349.933594 775.957031 1349.066406 775.957031 1349.066406 C 769.027344 1349.355469 762.96875 1347.625 759.792969 1338.964844 L 706.40625 1338.964844 C 709.578125 1364.941406 730.070312 1382.253906 754.3125 1382.253906 L 848.101562 1382.253906 C 872.34375 1382.253906 894.855469 1373.308594 894.855469 1343.296875 C 895.144531 1312.992188 872.632812 1301.449219 848.390625 1301.449219 Z M 848.390625 1301.449219 " fill-opacity="1" fill-rule="nonzero"/></g><g clip-path="url(#766691e7e2)"><path fill="#000000" d="M 1055.3125 1249.503906 L 1055.3125 1330.886719 C 1052.425781 1339.832031 1045.5 1347.625 1036.839844 1347.625 L 987.203125 1347.625 C 978.546875 1347.625 971.621094 1339.832031 968.734375 1330.886719 L 968.734375 1249.503906 L 916.789062 1249.503906 L 916.789062 1340.410156 C 916.789062 1364.941406 941.316406 1382.253906 965.558594 1382.253906 L 1058.484375 1382.253906 C 1082.726562 1382.253906 1107.257812 1364.941406 1107.257812 1340.410156 L 1107.257812 1283.269531 Z M 1055.3125 1249.503906 " fill-opacity="1" fill-rule="nonzero"/></g><path fill="#000000" d="M 705.539062 1102.898438 L 878.980469 1102.898438 L 826.457031 1068.84375 L 705.539062 1068.84375 Z M 705.539062 1102.898438 " fill-opacity="1" fill-rule="nonzero"/><path fill="#000000" d="M 706.117188 1167.542969 L 879.558594 1167.542969 L 827.035156 1201.882812 L 706.117188 1201.882812 Z M 706.117188 1167.542969 " fill-opacity="1" fill-rule="nonzero"/><path fill="#000000" d="M 705.539062 1118.191406 L 878.980469 1118.191406 L 878.980469 1152.246094 L 705.539062 1152.246094 Z M 705.539062 1118.191406 " fill-opacity="1" fill-rule="nonzero"/><path fill="#000000" d="M 705.539062 1167.542969 L 878.980469 1167.542969 L 878.980469 1201.597656 L 705.539062 1201.597656 Z M 705.539062 1167.542969 " fill-opacity="1" fill-rule="nonzero"/><g clip-path="url(#d645da409b)"><path fill="#000000" d="M 442.632812 1246.761719 L 442.632812 1331.03125 C 439.746094 1339.976562 432.820312 1347.769531 424.164062 1347.769531 L 374.527344 1347.769531 C 365.867188 1347.769531 358.941406 1339.976562 356.054688 1331.03125 L 356.054688 1249.648438 L 304.109375 1249.648438 L 304.109375 1340.554688 C 304.109375 1365.085938 328.640625 1382.398438 352.882812 1382.398438 L 445.808594 1382.398438 C 470.050781 1382.398438 494.578125 1365.085938 494.578125 1340.554688 L 494.578125 1248.78125 Z M 442.632812 1246.761719 " fill-opacity="1" fill-rule="nonzero"/></g><path fill="#ffffff" d="M 706.058594 420.800781 L 652.332031 502.152344 C 652.332031 502.152344 586.609375 641.910156 588.175781 642.429688 C 589.738281 642.953125 628.339844 676.328125 628.339844 676.328125 L 731.617188 719.613281 C 731.617188 719.613281 824.464844 578.289062 824.988281 577.246094 C 825.507812 576.203125 869.847656 490.679688 869.847656 490.679688 L 711.277344 416.105469 Z M 706.058594 420.800781 " fill-opacity="1" fill-rule="nonzero"/><g clip-path="url(#090b6c39b1)"><path fill="#000000" d="M 1478.046875 1346.960938 C 1408.671875 1317.757812 1340.339844 1286.46875 1274.097656 1249.441406 L 1198.460938 1207.203125 C 1196.898438 1206.679688 1195.855469 1206.679688 1194.8125 1205.636719 C 1180.207031 1197.292969 1166.121094 1188.429688 1151.519531 1180.085938 C 1148.386719 1178.519531 1147.867188 1175.390625 1146.824219 1172.261719 C 1144.214844 1160.789062 1142.128906 1149.316406 1139.519531 1137.84375 C 1136.390625 1123.765625 1133.78125 1109.683594 1130.652344 1095.082031 C 1122.828125 1055.449219 1115.003906 1015.816406 1107.179688 975.660156 C 1104.050781 960.015625 1100.921875 944.371094 1097.792969 929.25 C 1097.269531 927.683594 1097.792969 925.597656 1097.269531 923.511719 C 1101.441406 925.078125 1103.53125 927.683594 1105.617188 929.769531 C 1119.699219 946.457031 1133.78125 963.667969 1147.867188 980.355469 C 1150.472656 983.484375 1152.5625 987.132812 1155.167969 990.261719 C 1156.734375 992.347656 1157.253906 994.433594 1155.167969 997.042969 C 1152.5625 1000.691406 1150.996094 1004.34375 1147.867188 1007.472656 C 1142.648438 1013.207031 1141.085938 1019.46875 1142.128906 1026.769531 C 1143.171875 1037.199219 1143.695312 1048.148438 1144.214844 1058.578125 C 1144.214844 1061.1875 1145.257812 1063.273438 1148.386719 1064.316406 C 1160.386719 1068.488281 1172.382812 1072.136719 1184.902344 1076.308594 C 1186.988281 1076.832031 1189.59375 1076.832031 1191.683594 1075.265625 C 1204.722656 1065.359375 1216.71875 1053.886719 1227.671875 1041.890625 C 1230.804688 1038.761719 1230.804688 1035.113281 1229.238281 1031.460938 C 1226.109375 1023.117188 1222.976562 1014.253906 1219.847656 1005.910156 C 1209.417969 972.53125 1199.507812 939.679688 1189.074219 906.304688 C 1183.859375 888.574219 1178.121094 870.84375 1172.382812 853.113281 C 1171.339844 849.460938 1169.253906 846.332031 1166.644531 843.203125 C 1158.296875 831.730469 1149.953125 820.78125 1141.605469 809.308594 C 1135.867188 801.484375 1136.914062 799.921875 1145.257812 796.269531 C 1149.429688 794.707031 1153.082031 793.140625 1156.734375 791.054688 C 1160.386719 788.96875 1160.90625 788.449219 1159.34375 784.277344 C 1158.820312 781.667969 1157.777344 778.539062 1157.253906 775.933594 C 1132.738281 685.714844 1108.222656 594.976562 1083.707031 504.757812 C 1082.144531 499.542969 1080.054688 495.371094 1075.882812 491.722656 C 1073.796875 490.15625 1072.230469 488.59375 1070.144531 487.027344 C 1053.453125 475.554688 1037.285156 463.5625 1020.59375 452.089844 C 1019.027344 451.046875 1003.902344 442.179688 1005.988281 442.179688 C 1002.859375 439.050781 1000.769531 435.402344 997.640625 432.792969 C 990.339844 427.058594 988.253906 419.757812 988.773438 407.761719 L 1082.664062 410.890625 C 1073.277344 380.644531 1064.40625 347.269531 1055.539062 315.457031 C 1064.929688 308.15625 1076.40625 308.15625 1086.316406 301.898438 C 1083.1875 287.820312 1079.011719 274.261719 1074.320312 260.703125 C 1074.320312 260.179688 1073.796875 260.179688 1073.796875 259.660156 C 1072.753906 257.050781 1070.667969 256.007812 1067.539062 257.050781 C 1064.40625 258.09375 1060.757812 258.617188 1057.105469 259.136719 C 1055.539062 259.136719 1054.496094 258.617188 1051.890625 258.09375 C 1053.976562 254.964844 1055.539062 252.359375 1057.105469 249.75 C 1069.625 234.105469 1077.449219 216.375 1082.664062 197.082031 C 1086.316406 184.042969 1086.835938 169.964844 1087.359375 156.40625 C 1088.921875 126.160156 1089.445312 95.390625 1091.011719 65.144531 L 1091.011719 59.40625 C 1088.925781 59.929688 1087.359375 60.449219 1085.792969 60.972656 C 1071.1875 68.273438 1056.582031 75.574219 1041.980469 83.394531 C 1039.890625 84.4375 1038.328125 86.003906 1036.242188 87.566406 C 1038.328125 89.652344 1039.890625 90.695312 1041.457031 92.261719 C 1051.890625 100.605469 1058.671875 110.515625 1057.628906 124.59375 C 1057.105469 136.589844 1057.105469 149.105469 1055.539062 161.097656 C 1054.496094 172.050781 1049.804688 181.957031 1044.066406 191.34375 C 1043.542969 192.386719 1041.980469 193.429688 1040.933594 194.472656 C 1039.890625 192.386719 1039.371094 191.34375 1038.847656 190.300781 C 1035.71875 176.742188 1028.417969 165.792969 1019.027344 155.882812 C 1001.292969 138.152344 980.429688 128.765625 954.871094 131.375 C 948.089844 131.894531 946.523438 133.980469 948.089844 140.761719 C 948.609375 143.367188 949.132812 146.496094 950.175781 149.105469 C 952.261719 154.839844 954.347656 160.578125 956.957031 166.3125 C 967.386719 188.738281 983.558594 204.902344 1007.03125 214.289062 C 1012.769531 216.375 1018.507812 217.417969 1024.242188 216.375 C 1035.71875 214.289062 1046.671875 210.117188 1055.019531 201.773438 C 1056.582031 200.210938 1058.671875 198.644531 1061.277344 196.558594 C 1060.234375 199.167969 1060.234375 200.730469 1059.191406 202.296875 C 1055.539062 209.597656 1051.890625 216.898438 1047.714844 224.71875 C 1044.585938 230.457031 1039.890625 235.148438 1034.15625 238.800781 C 1027.894531 242.972656 1021.113281 245.578125 1013.8125 246.621094 C 1008.074219 247.664062 1002.335938 247.664062 997.640625 244.535156 C 992.425781 241.40625 986.6875 238.277344 981.472656 234.105469 C 970.519531 225.761719 961.648438 215.332031 953.824219 203.859375 C 942.871094 187.695312 935.046875 170.484375 930.875 151.710938 C 927.746094 137.109375 925.136719 121.988281 922.527344 107.386719 C 921.484375 101.648438 923.050781 97.996094 927.746094 94.867188 C 931.398438 92.261719 935.046875 90.175781 939.222656 87.566406 C 940.785156 86.523438 942.351562 85.480469 944.4375 83.917969 C 939.222656 81.832031 935.046875 79.746094 930.875 78.179688 C 896.449219 65.664062 862.023438 53.148438 827.597656 40.632812 C 826.03125 40.113281 823.945312 43.242188 822.378906 38.027344 L 821.335938 38.027344 C 820.816406 43.242188 823.421875 44.285156 824.988281 46.371094 C 834.898438 59.40625 845.332031 72.964844 854.71875 86.523438 C 868.28125 105.296875 880.800781 124.59375 893.839844 143.890625 C 894.363281 144.410156 894.363281 144.933594 894.882812 146.496094 C 869.324219 161.097656 854.199219 184.042969 843.246094 210.640625 L 838.550781 210.640625 C 834.378906 209.074219 831.769531 210.640625 829.160156 213.246094 C 828.117188 214.289062 827.074219 215.332031 826.03125 216.898438 C 818.207031 226.804688 810.382812 237.234375 802.558594 247.144531 C 800.472656 249.75 799.429688 252.359375 797.863281 254.964844 C 796.300781 257.574219 795.777344 260.179688 798.386719 262.265625 C 799.429688 263.308594 799.949219 264.875 800.992188 266.960938 C 798.386719 266.960938 796.820312 267.480469 795.777344 266.960938 C 792.125 265.917969 789.519531 267.480469 786.910156 270.089844 C 785.867188 271.132812 785.34375 272.175781 784.300781 273.21875 C 766.566406 295.121094 748.832031 317.542969 731.097656 339.445312 C 729.53125 341.53125 727.445312 344.140625 725.882812 346.226562 C 724.839844 347.269531 724.839844 348.832031 724.316406 350.917969 C 727.445312 351.960938 729.53125 353.003906 732.140625 354.046875 C 756.136719 363.957031 780.128906 373.863281 804.125 383.773438 C 806.210938 384.816406 808.296875 385.859375 810.902344 386.902344 C 807.253906 388.988281 804.125 390.550781 801.515625 392.117188 C 785.34375 399.9375 769.175781 407.761719 753.003906 415.585938 C 749.355469 417.148438 746.746094 417.148438 743.09375 415.0625 C 735.792969 411.414062 727.96875 407.761719 720.664062 404.109375 C 717.535156 402.546875 715.449219 402.546875 713.882812 405.675781 C 710.753906 409.847656 708.148438 414.019531 705.015625 418.714844 C 707.101562 420.277344 709.191406 421.320312 710.753906 421.84375 C 724.839844 429.144531 738.921875 435.921875 753.003906 443.222656 C 783.78125 458.867188 814.554688 473.992188 845.851562 489.636719 C 847.9375 490.679688 850.023438 492.242188 852.632812 493.808594 C 850.546875 497.980469 848.980469 501.109375 846.894531 504.757812 C 827.074219 538.132812 806.730469 571.507812 786.910156 605.40625 C 768.132812 637.738281 749.355469 670.589844 730.574219 703.445312 L 729.011719 706.574219 C 725.882812 711.269531 725.882812 711.789062 720.144531 709.703125 C 715.972656 708.140625 711.796875 706.054688 708.148438 703.96875 C 673.71875 686.234375 639.292969 668.503906 604.34375 650.773438 C 602.257812 649.730469 600.695312 648.6875 597.566406 647.644531 C 598.085938 649.730469 598.085938 651.296875 598.609375 653.382812 C 601.738281 667.984375 604.347656 682.585938 606.953125 697.1875 L 606.953125 697.710938 L 655.984375 716.484375 L 650.769531 729.519531 C 651.289062 729.519531 652.335938 730.042969 653.898438 731.085938 C 657.027344 732.648438 660.160156 734.734375 663.289062 736.820312 C 664.332031 737.34375 665.375 737.863281 666.417969 738.90625 C 674.761719 743.601562 683.109375 748.292969 691.976562 752.988281 C 694.585938 754.550781 697.714844 756.117188 700.324219 757.679688 C 706.058594 760.808594 711.796875 763.9375 717.535156 767.066406 C 718.058594 767.589844 718.578125 767.589844 719.101562 768.109375 C 719.621094 768.632812 720.144531 768.632812 720.664062 769.152344 C 723.273438 771.238281 724.839844 773.324219 725.882812 776.976562 C 732.664062 799.921875 739.445312 822.34375 746.222656 845.289062 C 746.746094 846.855469 746.746094 848.941406 747.269531 850.503906 C 731.097656 858.847656 715.449219 867.191406 698.757812 875.535156 C 696.671875 873.449219 695.105469 871.363281 693.542969 869.277344 C 678.9375 850.503906 663.808594 831.730469 649.203125 812.4375 C 645.03125 806.699219 640.335938 800.964844 636.164062 794.707031 C 634.597656 792.621094 633.035156 791.054688 631.992188 788.96875 C 631.46875 788.449219 630.949219 787.925781 630.949219 787.40625 C 630.425781 786.882812 630.425781 786.363281 630.425781 785.839844 L 630.425781 786.363281 L 522.453125 712.3125 L 540.707031 682.585938 C 542.273438 679.980469 543.316406 678.414062 544.359375 676.328125 L 544.882812 675.808594 C 553.226562 662.769531 561.050781 649.730469 569.398438 636.695312 C 601.738281 587.152344 633.554688 537.613281 665.894531 488.070312 C 667.984375 484.941406 669.546875 482.335938 670.589844 480.769531 C 671.632812 479.207031 672.675781 478.164062 673.199219 476.597656 C 673.199219 476.078125 673.71875 475.554688 673.71875 475.554688 C 674.242188 475.035156 674.242188 474.511719 674.761719 473.992188 C 675.285156 472.949219 675.808594 472.425781 675.808594 471.90625 L 676.328125 471.382812 C 673.71875 471.382812 672.15625 472.425781 670.589844 472.949219 C 664.851562 476.597656 659.113281 480.25 652.855469 484.421875 C 652.335938 484.941406 651.8125 484.941406 651.292969 485.464844 C 620.515625 506.324219 591.828125 529.269531 566.269531 555.863281 L 565.746094 556.386719 C 529.234375 595.496094 504.71875 634.609375 489.589844 659.117188 C 489.070312 660.160156 488.546875 660.683594 488.027344 661.726562 C 487.503906 662.246094 487.503906 662.769531 486.984375 663.8125 C 484.375 668.503906 481.765625 672.675781 478.636719 676.851562 C 477.59375 678.414062 477.074219 678.9375 476.027344 679.457031 C 474.464844 680.5 473.421875 679.980469 470.8125 678.414062 C 442.644531 659.117188 413.957031 639.300781 385.789062 620.007812 C 380.050781 615.835938 374.835938 611.664062 369.097656 608.011719 C 363.882812 604.363281 363.359375 604.363281 358.664062 609.054688 C 351.363281 617.398438 344.582031 626.265625 337.28125 635.128906 C 336.757812 635.652344 336.757812 636.171875 336.238281 637.214844 C 339.886719 640.34375 343.539062 643.996094 347.710938 646.601562 C 380.050781 669.550781 411.871094 691.972656 444.210938 714.917969 C 448.382812 718.046875 453.078125 720.65625 456.730469 723.785156 C 459.335938 725.871094 460.378906 726.914062 460.378906 728.476562 L 677.894531 889.09375 C 677.894531 889.09375 700.324219 958.453125 701.367188 955.84375 C 704.496094 962.625 707.105469 968.359375 709.191406 974.097656 C 711.796875 980.355469 715.972656 985.050781 721.707031 988.699219 C 724.316406 990.265625 727.445312 991.828125 730.054688 993.914062 C 741.53125 1000.695312 753.003906 1007.472656 764.480469 1014.253906 C 773.347656 1019.46875 782.214844 1024.160156 791.082031 1028.855469 C 796.820312 1025.203125 800.996094 1020.511719 806.730469 1018.425781 C 806.210938 1020.511719 804.644531 1022.597656 803.601562 1024.683594 C 802.039062 1027.8125 800.472656 1030.941406 798.90625 1034.070312 C 797.34375 1038.242188 798.386719 1040.847656 803.082031 1042.414062 C 813.511719 1045.542969 813.511719 1048.148438 820.816406 1036.675781 C 822.902344 1033.027344 824.988281 1029.898438 827.074219 1026.246094 C 839.070312 1034.589844 850.546875 1042.414062 862.023438 1050.234375 C 862.023438 1050.234375 1192.203125 1263.523438 1204.722656 1270.824219 C 1250.625 1297.421875 1297.046875 1322.972656 1345.035156 1345.398438 C 1371.117188 1357.390625 1397.199219 1369.90625 1424.320312 1379.816406 C 1426.410156 1380.859375 1429.015625 1381.902344 1431.625 1380.859375 C 1450.402344 1374.601562 1468.136719 1368.34375 1486.914062 1362.605469 C 1490.046875 1361.5625 1495.785156 1361.5625 1495.785156 1360.519531 L 1495.785156 1359.476562 C 1498.914062 1354.261719 1485.871094 1350.089844 1478.046875 1346.960938 Z M 1017.464844 298.25 C 1027.894531 295.640625 1037.804688 293.035156 1046.671875 284.691406 C 1046.671875 286.253906 1046.152344 287.820312 1045.628906 289.382812 C 1045.628906 289.90625 1045.109375 290.949219 1044.585938 291.46875 C 1044.066406 293.035156 1043.542969 294.078125 1042.5 295.640625 C 1041.980469 296.683594 1040.9375 297.726562 1040.414062 299.292969 C 1039.890625 299.8125 1039.890625 300.335938 1039.371094 300.855469 C 1038.328125 301.898438 1037.285156 302.941406 1036.761719 303.984375 C 1036.242188 304.507812 1035.71875 304.507812 1035.199219 305.027344 C 1034.15625 305.550781 1033.113281 306.59375 1032.066406 307.113281 C 1031.546875 307.636719 1031.023438 307.636719 1030.503906 307.636719 C 1029.980469 308.15625 1029.460938 308.15625 1028.9375 308.15625 C 1025.808594 308.679688 1022.679688 308.679688 1020.070312 307.636719 C 1018.507812 307.113281 1016.941406 306.070312 1015.375 304.507812 C 1013.289062 301.898438 1013.8125 299.292969 1017.464844 298.25 Z M 991.382812 531.355469 C 1004.421875 550.128906 1017.984375 568.378906 1031.546875 586.632812 C 1036.761719 593.410156 1038.847656 600.191406 1035.199219 608.011719 C 1033.632812 611.664062 1032.589844 616.878906 1031.546875 621.050781 C 1031.023438 622.09375 1031.023438 621.050781 1030.503906 626.265625 L 1028.9375 626.265625 C 1028.417969 626.265625 1028.417969 624.179688 1027.894531 623.65625 C 1027.375 623.136719 1027.375 622.09375 1026.851562 621.570312 C 1023.199219 616.355469 1019.550781 610.621094 1015.375 605.40625 C 986.6875 566.292969 958 527.183594 928.789062 488.59375 C 907.402344 460.433594 885.496094 433.316406 863.585938 405.675781 C 860.457031 402.023438 857.847656 397.851562 854.71875 394.203125 C 854.199219 393.679688 854.199219 393.160156 853.675781 392.636719 C 853.15625 392.117188 853.15625 391.074219 853.675781 390.03125 C 853.675781 389.683594 853.851562 389.335938 854.199219 388.988281 C 857.328125 384.292969 859.933594 379.601562 863.585938 374.386719 C 864.109375 374.90625 864.628906 375.429688 865.152344 375.949219 C 866.195312 376.992188 866.714844 378.035156 867.238281 378.558594 C 867.585938 378.90625 867.933594 379.253906 868.28125 379.601562 C 877.671875 390.03125 887.582031 400.460938 897.492188 410.890625 C 899.578125 413.496094 902.1875 416.105469 904.792969 418.191406 L 908.445312 421.839844 C 909.488281 423.40625 911.054688 424.449219 912.097656 426.011719 C 915.75 430.707031 919.398438 434.878906 923.050781 439.574219 C 934.003906 453.132812 944.957031 466.691406 955.390625 480.25 C 967.386719 496.9375 978.863281 514.144531 991.382812 531.355469 Z M 922.007812 315.980469 C 921.660156 315.980469 921.484375 315.804688 921.484375 315.457031 C 921.484375 315.457031 922.007812 315.457031 922.007812 315.980469 Z M 922.53125 315.980469 C 922.53125 315.980469 921.484375 315.980469 920.964844 315.457031 C 921.484375 315.457031 920.964844 315.457031 920.964844 315.980469 C 920.964844 316.5 922.007812 316.5 922.53125 315.980469 C 928.789062 319.628906 935.570312 323.28125 941.828125 326.929688 C 944.957031 329.015625 947.046875 330.582031 950.695312 332.667969 C 953.828125 334.753906 959.5625 336.316406 959.5625 338.402344 L 958 384.292969 C 958 384.816406 959.5625 385.335938 960.085938 385.859375 L 958.519531 385.859375 L 958.519531 384.292969 C 958 384.292969 958 383.773438 957.476562 383.773438 C 956.957031 383.773438 956.957031 383.25 956.957031 383.25 L 956.433594 383.25 C 950.175781 379.601562 944.4375 375.949219 939.222656 372.820312 C 938.699219 372.300781 938.179688 372.300781 937.65625 371.777344 C 937.136719 371.257812 937.136719 371.257812 936.613281 370.734375 C 933.484375 368.648438 930.875 366.5625 927.746094 363.957031 C 925.660156 362.390625 924.09375 359.261719 923.574219 357.175781 C 923.050781 353.003906 920.964844 348.832031 920.964844 345.183594 C 920.964844 334.753906 919.921875 325.367188 922.53125 315.980469 Z M 948.609375 286.253906 C 960.605469 291.992188 972.605469 296.164062 985.644531 297.726562 C 987.210938 297.726562 988.773438 299.292969 988.773438 299.8125 L 988.773438 300.335938 C 988.773438 300.855469 989.816406 300.855469 989.296875 301.378906 L 989.296875 302.421875 C 989.296875 302.941406 989.296875 303.464844 988.773438 303.464844 L 988.253906 303.984375 C 988.253906 303.984375 988.253906 304.507812 987.730469 304.507812 C 986.6875 305.550781 985.121094 306.070312 984.078125 307.113281 C 984.078125 307.113281 983.558594 307.113281 983.558594 307.636719 C 983.035156 308.15625 982.515625 308.15625 981.472656 308.679688 L 980.949219 308.679688 C 979.90625 309.199219 978.863281 309.199219 978.34375 309.722656 C 977.296875 310.242188 976.253906 310.242188 974.691406 310.242188 L 971.5625 310.242188 C 969.996094 310.242188 968.429688 310.242188 966.867188 309.722656 C 959.042969 308.15625 953.304688 304.507812 948.609375 299.8125 L 944.957031 296.164062 C 942.871094 293.554688 940.265625 290.949219 938.175781 287.820312 C 937.132812 286.253906 936.089844 284.691406 935.046875 283.648438 C 940.785156 282.605469 944.957031 284.167969 948.609375 286.253906 Z M 868.804688 218.984375 L 868.804688 215.855469 C 869.324219 214.8125 869.324219 213.769531 869.847656 212.203125 C 870.367188 211.160156 870.890625 209.597656 871.410156 208.554688 C 871.933594 206.988281 872.453125 205.945312 873.496094 204.382812 C 875.0625 200.730469 877.148438 197.082031 879.757812 193.953125 C 880.277344 192.910156 881.320312 191.867188 881.84375 190.824219 C 883.410156 188.214844 884.972656 185.609375 887.058594 183 C 893.839844 173.613281 900.621094 165.269531 905.316406 162.664062 C 908.96875 166.835938 912.097656 171.527344 915.226562 176.222656 C 915.75 177.265625 916.269531 178.308594 916.792969 179.351562 C 917.3125 180.394531 917.835938 181.4375 918.355469 182.480469 C 920.441406 186.128906 922.007812 189.78125 923.050781 193.953125 C 923.574219 195.515625 923.574219 197.082031 923.574219 198.644531 C 923.050781 210.117188 922.527344 221.589844 922.007812 233.0625 C 922.007812 238.800781 921.484375 244.535156 921.484375 250.273438 L 921.484375 250.792969 C 921.484375 251.316406 920.964844 252.359375 920.964844 253.402344 C 900.101562 242.449219 884.453125 230.976562 868.804688 218.984375 Z M 822.902344 254.964844 C 828.117188 248.707031 832.8125 242.449219 838.027344 235.671875 C 839.59375 233.585938 840.636719 232.542969 842.199219 232.019531 C 843.246094 231.5 843.765625 231.5 844.808594 231.5 C 845.332031 231.5 845.851562 232.019531 846.894531 232.019531 C 847.9375 232.542969 848.460938 232.542969 849.503906 233.585938 C 865.671875 242.449219 881.320312 250.792969 896.96875 259.660156 C 899.058594 260.703125 901.144531 262.265625 903.230469 264.351562 C 896.96875 272.175781 890.710938 281.039062 884.972656 288.863281 C 882.886719 291.46875 880.800781 287.296875 879.234375 297.726562 C 864.628906 287.296875 824.464844 266.960938 819.773438 261.746094 C 820.816406 259.660156 821.859375 256.53125 822.902344 254.964844 Z M 762.914062 338.925781 C 762.914062 338.402344 763.4375 338.402344 763.4375 337.882812 C 763.960938 336.839844 764.480469 336.316406 765.003906 335.273438 C 777.519531 319.109375 789.519531 302.941406 802.035156 286.777344 C 805.6875 282.082031 806.730469 281.5625 812.46875 284.691406 C 830.203125 294.078125 848.460938 303.464844 866.195312 313.371094 C 866.71875 313.894531 867.238281 314.414062 868.28125 314.9375 C 855.761719 333.710938 843.765625 351.960938 831.769531 370.214844 C 823.421875 367.605469 766.046875 341.53125 762.914062 338.925781 Z M 852.113281 548.5625 C 853.15625 543.347656 856.804688 538.132812 859.414062 533.441406 C 867.238281 519.882812 875.0625 506.84375 882.886719 493.285156 C 884.453125 490.679688 886.015625 487.550781 887.582031 484.421875 C 886.539062 483.898438 886.015625 483.378906 885.496094 482.855469 C 884.972656 482.335938 884.453125 482.335938 883.929688 481.8125 C 861.5 470.339844 839.070312 458.867188 816.121094 447.394531 C 812.992188 445.832031 809.859375 444.265625 807.253906 442.179688 C 800.992188 439.050781 794.734375 435.402344 788.476562 432.273438 C 786.386719 431.230469 783.78125 430.707031 782.738281 427.578125 C 784.300781 426.535156 785.34375 424.972656 786.910156 424.449219 C 798.90625 418.191406 810.382812 412.453125 822.378906 406.195312 C 823.945312 405.152344 825.507812 404.632812 826.550781 404.632812 C 827.074219 404.109375 827.597656 405.675781 828.117188 405.675781 C 828.640625 405.675781 828.640625 406.71875 829.160156 406.71875 C 829.683594 406.71875 829.683594 405.675781 830.203125 405.675781 C 832.289062 406.195312 832.8125 406.71875 835.941406 409.847656 C 836.984375 410.890625 837.507812 411.410156 837.507812 412.453125 C 847.9375 423.40625 857.328125 434.878906 866.195312 445.832031 C 913.140625 502.671875 956.957031 562.121094 997.121094 623.65625 C 1029.460938 672.15625 1058.671875 724.304688 1083.707031 776.976562 C 1084.230469 778.019531 1076.925781 778.019531 1087.359375 780.625 C 1087.359375 781.148438 1085.273438 781.667969 1085.273438 781.667969 L 1077.96875 781.667969 C 1051.890625 780.625 1028.417969 779.0625 1002.335938 778.019531 C 1001.292969 778.019531 999.726562 776.976562 998.683594 776.976562 C 997.121094 776.976562 998.683594 775.410156 998.683594 773.324219 C 998.683594 772.804688 993.992188 772.28125 993.46875 771.761719 C 979.90625 747.773438 963.738281 724.304688 950.175781 700.835938 C 937.132812 678.414062 923.050781 655.988281 910.011719 633.566406 C 908.445312 631.480469 906.359375 629.394531 905.316406 627.308594 L 904.792969 627.308594 C 904.273438 627.308594 904.273438 627.828125 903.75 627.828125 C 904.273438 630.4375 904.273438 632.523438 904.792969 635.128906 C 912.097656 666.417969 918.878906 697.707031 926.179688 729 C 926.703125 732.648438 927.746094 736.300781 928.265625 739.949219 C 930.355469 750.902344 932.441406 761.332031 934.527344 772.28125 L 934.527344 777.496094 C 929.832031 779.0625 906.359375 777.496094 899.058594 777.496094 C 898.535156 772.28125 898.015625 772.804688 897.492188 771.238281 C 891.753906 746.207031 885.496094 721.175781 880.277344 696.144531 C 878.191406 687.800781 876.628906 679.457031 875.0625 671.113281 C 873.5 664.332031 872.453125 657.554688 870.890625 651.296875 C 869.324219 644.515625 868.28125 638.257812 866.71875 631.480469 C 865.152344 624.699219 864.109375 618.441406 863.066406 611.664062 C 859.9375 596.019531 857.328125 580.894531 854.199219 565.25 C 853.675781 563.6875 853.15625 561.601562 853.15625 560.035156 C 853.15625 559.515625 852.632812 558.992188 852.632812 558.472656 C 852.113281 557.429688 852.113281 556.386719 852.113281 554.820312 Z M 974.691406 952.714844 C 968.953125 950.628906 963.738281 948.542969 958 946.457031 C 956.433594 945.9375 954.871094 945.414062 953.828125 944.894531 C 952.785156 944.371094 951.738281 943.851562 950.695312 943.328125 C 950.175781 942.808594 949.652344 942.808594 949.132812 942.285156 L 948.609375 941.765625 L 948.089844 941.242188 L 948.089844 937.59375 C 948.089844 936.027344 948.609375 933.941406 949.652344 930.8125 C 956.433594 904.738281 962.695312 879.1875 968.953125 853.113281 C 971.039062 844.769531 977.300781 839.554688 984.078125 834.859375 C 987.210938 832.773438 990.339844 833.816406 992.949219 836.945312 C 993.992188 838.511719 995.035156 840.074219 996.078125 841.640625 C 1000.25 849.984375 1000.25 858.328125 998.164062 867.191406 C 993.992188 888.574219 989.816406 909.433594 985.644531 930.8125 C 984.078125 938.636719 983.035156 946.457031 979.386719 953.757812 C 977.820312 954.28125 976.253906 953.238281 974.691406 952.714844 Z M 836.984375 699.792969 C 847.9375 723.785156 858.371094 747.773438 868.804688 772.28125 C 853.15625 772.28125 844.808594 772.28125 833.332031 771.761719 C 830.203125 771.761719 826.03125 771.761719 822.902344 771.238281 C 820.816406 771.238281 818.730469 771.238281 816.640625 770.71875 C 814.554688 770.71875 812.992188 770.195312 810.90625 770.195312 C 818.730469 746.207031 828.117188 723.261719 836.984375 699.792969 Z M 787.433594 815.566406 L 789.519531 814 L 790.5625 814 L 790.5625 815.042969 L 791.082031 814.523438 L 791.082031 814 L 791.605469 814 C 847.9375 816.085938 904.273438 818.695312 960.609375 820.78125 L 960.609375 821.300781 C 960.609375 821.300781 961.652344 821.300781 961.652344 821.824219 L 962.695312 821.824219 L 962.171875 822.34375 C 946.523438 839.03125 945.480469 840.597656 942.351562 857.804688 C 923.050781 857.285156 903.75 856.242188 884.972656 855.71875 C 875.585938 855.199219 866.195312 856.242188 856.804688 855.71875 C 851.070312 855.199219 845.332031 856.242188 840.113281 856.242188 C 838.027344 856.242188 835.941406 854.675781 833.855469 854.675781 C 831.246094 854.675781 829.160156 853.632812 826.554688 853.113281 L 826.554688 852.589844 C 825.507812 852.589844 824.464844 852.070312 822.902344 852.070312 C 811.425781 851.546875 799.949219 850.503906 788.476562 849.984375 L 786.386719 849.984375 Z M 796.820312 950.628906 C 796.300781 958.972656 795.777344 967.316406 793.167969 975.660156 C 792.125 975.140625 791.082031 975.140625 790.5625 974.617188 C 771.785156 963.667969 753.003906 953.238281 734.75 942.285156 C 729.53125 939.15625 724.839844 936.550781 719.621094 933.941406 C 716.492188 932.378906 714.925781 930.292969 714.925781 926.640625 C 714.925781 921.949219 715.449219 917.253906 715.449219 912.5625 C 715.449219 910.476562 715.449219 908.910156 715.96875 907.347656 C 716.492188 905.78125 717.015625 904.21875 717.535156 903.175781 L 718.058594 902.652344 C 718.578125 901.609375 719.621094 900.566406 720.144531 900.046875 C 721.1875 899.003906 722.75 897.960938 724.316406 897.4375 C 737.355469 890.660156 750.398438 884.402344 763.960938 878.144531 L 766.046875 878.144531 C 771.261719 883.359375 776.476562 888.050781 781.695312 893.265625 L 797.34375 908.910156 C 798.386719 909.953125 798.90625 912.5625 798.90625 914.125 C 798.386719 925.597656 797.863281 938.113281 796.820312 950.628906 Z M 909.488281 940.199219 C 903.75 958.972656 898.535156 977.746094 892.796875 997.042969 C 892.796875 997.5625 892.277344 998.085938 892.277344 998.085938 C 891.753906 999.128906 891.234375 1000.171875 891.234375 1000.691406 C 889.667969 1002.777344 888.101562 1002.257812 884.972656 1000.171875 C 878.714844 995.476562 872.453125 990.785156 866.714844 986.089844 C 863.066406 982.960938 862.023438 979.3125 864.628906 974.617188 C 865.671875 972.011719 867.238281 969.925781 868.28125 967.316406 C 870.367188 963.144531 872.976562 958.972656 875.585938 954.28125 C 874.539062 953.757812 873.496094 953.238281 872.453125 952.714844 C 869.847656 951.152344 867.238281 949.585938 864.109375 948.542969 C 859.9375 946.980469 856.285156 947.5 853.675781 951.152344 C 851.589844 953.757812 849.503906 956.886719 847.417969 960.015625 C 845.851562 962.101562 844.289062 964.710938 842.199219 967.839844 C 839.070312 964.710938 836.464844 961.582031 833.332031 958.972656 C 834.375 957.410156 834.898438 956.367188 835.941406 955.324219 C 838.550781 951.152344 841.679688 946.980469 844.289062 942.808594 C 844.808594 941.765625 845.332031 941.242188 845.332031 940.199219 C 845.851562 939.15625 845.851562 938.113281 845.851562 937.070312 C 845.851562 936.550781 845.851562 936.027344 845.332031 935.507812 C 844.808594 934.464844 844.289062 933.941406 843.765625 932.898438 L 842.199219 931.335938 C 839.59375 929.25 836.464844 927.683594 833.332031 926.121094 C 830.203125 924.554688 827.597656 922.992188 824.464844 920.90625 C 824.988281 916.734375 825.507812 913.605469 826.03125 909.953125 C 826.550781 906.304688 825.507812 903.175781 822.902344 900.566406 C 819.769531 897.960938 817.683594 894.832031 817.164062 890.136719 C 819.769531 888.050781 822.902344 887.53125 826.550781 888.574219 C 829.683594 889.617188 832.289062 890.660156 835.417969 891.703125 C 860.980469 903.175781 886.015625 914.648438 911.574219 926.121094 C 912.617188 926.640625 913.660156 927.683594 915.226562 928.207031 C 914.703125 930.292969 914.183594 932.378906 913.140625 934.464844 C 910.53125 936.027344 910.011719 938.113281 909.488281 940.199219 Z M 1063.886719 1127.414062 C 1058.148438 1124.285156 1055.539062 1121.679688 1051.367188 1118.550781 C 1039.371094 1110.207031 1027.894531 1101.863281 1015.898438 1093.519531 C 1014.332031 1092.476562 1013.289062 1091.433594 1011.726562 1090.390625 C 989.816406 1074.746094 967.910156 1059.101562 946.003906 1043.976562 C 944.960938 1043.457031 944.4375 1042.933594 943.914062 1041.890625 C 943.394531 1041.371094 943.394531 1040.847656 942.871094 1040.847656 C 942.351562 1040.328125 942.351562 1039.804688 942.351562 1039.285156 C 942.351562 1038.761719 941.828125 1038.242188 941.828125 1037.71875 L 941.828125 1035.113281 C 943.394531 1018.425781 943.914062 1002.257812 945.480469 985.570312 C 945.480469 984.003906 946.003906 981.917969 946.003906 980.355469 C 946.523438 978.269531 946.523438 976.703125 947.046875 974.617188 C 947.566406 974.617188 948.089844 975.140625 948.089844 975.140625 C 948.4375 975.140625 948.785156 975.3125 949.132812 975.660156 C 949.652344 975.660156 949.652344 976.183594 950.175781 976.183594 C 950.695312 976.183594 950.695312 976.183594 950.695312 976.703125 C 968.953125 987.132812 986.6875 997.5625 1004.945312 1007.996094 C 1005.464844 1008.515625 1005.988281 1008.515625 1006.507812 1009.039062 L 1007.03125 1009.558594 C 1007.03125 1010.082031 1007.554688 1010.082031 1007.554688 1010.601562 C 1007.554688 1011.125 1008.074219 1011.644531 1008.074219 1012.167969 L 1008.074219 1050.234375 C 1008.074219 1053.886719 1008.597656 1060.664062 1009.117188 1060.664062 C 1009.640625 1060.664062 1010.683594 1061.707031 1011.203125 1061.1875 C 1011.726562 1060.664062 1012.769531 1061.707031 1013.289062 1061.1875 C 1014.335938 1060.664062 1015.378906 1060.664062 1016.421875 1060.144531 C 1023.722656 1055.449219 1030.503906 1050.757812 1037.808594 1045.542969 C 1047.195312 1038.761719 1056.0625 1032.503906 1065.453125 1025.726562 C 1066.496094 1025.203125 1068.058594 1024.683594 1068.058594 1024.160156 L 1068.058594 1025.203125 L 1064.410156 1127.414062 Z M 1062.84375 950.109375 C 1061.800781 950.628906 1060.234375 951.152344 1059.191406 951.671875 C 1055.539062 953.238281 1051.890625 954.28125 1048.238281 954.800781 C 1046.671875 955.324219 1045.628906 955.324219 1045.109375 954.800781 C 1044.585938 954.800781 1044.585938 954.28125 1044.066406 954.28125 C 1043.542969 953.757812 1043.023438 952.714844 1043.023438 951.152344 C 1042.5 950.109375 1042.5 949.066406 1042.5 947.5 C 1040.414062 927.164062 1037.804688 907.347656 1035.71875 887.007812 C 1034.675781 878.144531 1036.242188 868.234375 1031.546875 859.890625 C 1031.023438 859.371094 1031.023438 858.328125 1031.023438 857.804688 C 1030.503906 848.941406 1027.375 840.597656 1024.242188 832.253906 C 1023.199219 829.644531 1022.15625 826.515625 1020.070312 822.867188 C 1023.722656 822.867188 1026.332031 822.867188 1028.9375 823.386719 C 1042.5 823.910156 1051.367188 830.167969 1055.019531 843.726562 C 1057.628906 852.070312 1059.714844 859.890625 1061.277344 868.234375 C 1062.84375 877.101562 1064.410156 885.964844 1065.972656 894.308594 C 1067.539062 903.175781 1068.582031 912.039062 1070.144531 920.382812 C 1071.710938 928.726562 1072.753906 936.550781 1073.796875 945.414062 C 1070.144531 946.980469 1066.496094 948.542969 1062.84375 950.109375 Z M 1091.011719 844.769531 C 1091.011719 846.855469 1090.488281 848.417969 1089.445312 851.546875 C 1086.835938 847.375 1084.75 842.683594 1082.664062 838.511719 C 1080.578125 834.339844 1077.96875 829.644531 1075.363281 825.472656 C 1076.40625 825.472656 1077.96875 825.472656 1079.015625 825.996094 C 1081.101562 825.996094 1083.1875 826.515625 1085.273438 826.515625 C 1086.316406 826.515625 1087.359375 827.039062 1087.882812 827.039062 L 1088.402344 827.039062 C 1088.925781 827.039062 1089.445312 827.558594 1089.96875 827.558594 C 1090.488281 827.558594 1090.488281 828.082031 1090.488281 828.082031 C 1090.835938 828.429688 1091.011719 828.777344 1091.011719 829.125 L 1091.011719 831.210938 C 1091.53125 835.382812 1091.53125 840.074219 1091.011719 844.769531 Z M 1091.011719 844.769531 " fill-opacity="1" fill-rule="nonzero"/></g><path fill="#ffb41d" d="M 566.789062 555.34375 C 530.277344 594.453125 505.761719 633.566406 490.632812 658.074219 C 504.71875 633.566406 519.84375 610.097656 537.578125 588.195312 C 546.96875 576.722656 556.878906 565.773438 566.789062 555.34375 Z M 566.789062 555.34375 " fill-opacity="1" fill-rule="nonzero"/><path fill="#ffffff" d="M 782.214844 428.101562 C 783.257812 431.230469 785.867188 431.75 787.953125 432.792969 C 794.210938 435.921875 800.472656 439.574219 806.730469 442.703125 C 809.859375 444.265625 812.992188 446.351562 815.597656 447.917969 C 838.027344 459.390625 860.980469 470.863281 883.410156 482.335938 C 884.453125 482.855469 885.496094 483.898438 887.058594 484.941406 C 885.496094 488.070312 883.929688 491.199219 882.367188 493.808594 C 874.542969 507.367188 866.71875 520.402344 858.894531 533.960938 C 856.285156 538.65625 852.632812 543.871094 851.589844 549.085938 C 850.546875 554.300781 853.15625 560.035156 854.199219 565.773438 C 860.980469 601.234375 867.761719 636.171875 875.0625 671.632812 C 882.367188 705.007812 890.191406 737.863281 898.015625 770.71875 C 898.535156 772.28125 899.058594 773.847656 899.578125 775.410156 C 906.882812 777.496094 930.355469 778.019531 935.046875 776.976562 L 935.046875 773.324219 C 932.441406 758.722656 929.832031 744.644531 926.703125 730.042969 C 919.921875 698.75 912.617188 667.460938 905.316406 636.171875 C 904.792969 633.566406 904.273438 631.480469 904.273438 628.871094 C 904.792969 628.871094 904.792969 628.351562 905.316406 628.351562 C 906.882812 630.4375 908.445312 632.523438 909.488281 634.609375 C 922.527344 657.03125 935.570312 679.457031 948.609375 701.878906 C 962.171875 725.347656 976.253906 749.335938 989.816406 773.324219 C 991.902344 776.976562 994.511719 779.0625 999.207031 779.0625 C 1025.285156 779.582031 1051.367188 780.625 1077.449219 781.667969 L 1083.707031 781.667969 C 1083.1875 779.582031 1082.664062 778.539062 1082.144531 777.496094 C 1056.582031 724.828125 1029.980469 673.199219 997.640625 624.179688 C 956.957031 562.644531 914.183594 503.195312 867.238281 446.351562 C 857.847656 435.402344 848.460938 423.929688 839.59375 412.976562 C 838.550781 411.933594 838.027344 410.890625 836.984375 409.847656 C 831.246094 404.109375 829.683594 403.589844 822.378906 407.238281 C 810.382812 412.976562 798.386719 419.234375 786.910156 425.492188 C 784.824219 426.015625 783.257812 427.058594 782.214844 428.101562 Z M 782.214844 428.101562 " fill-opacity="1" fill-rule="nonzero"/><path fill="#ffffff" d="M 748.308594 848.941406 C 732.140625 857.285156 716.492188 865.628906 699.800781 873.972656 C 697.714844 871.886719 696.148438 869.800781 694.585938 867.714844 C 679.980469 848.941406 664.851562 830.167969 650.246094 810.871094 C 646.074219 805.136719 641.378906 799.398438 637.207031 793.140625 C 635.640625 791.054688 634.597656 789.492188 633.035156 787.40625 C 632.511719 786.882812 631.992188 786.363281 631.992188 785.839844 C 631.46875 785.320312 631.46875 784.796875 631.46875 784.277344 C 630.949219 783.234375 630.949219 782.191406 630.949219 780.625 C 630.949219 779.582031 631.46875 778.019531 631.46875 776.976562 C 631.992188 775.933594 631.992188 774.890625 632.511719 773.847656 C 633.035156 772.804688 633.035156 771.761719 633.554688 770.71875 C 638.773438 757.679688 643.988281 744.644531 649.203125 732.128906 C 649.203125 731.605469 649.726562 731.605469 649.726562 731.085938 C 650.246094 730.5625 650.246094 730.042969 650.246094 729.519531 L 650.769531 729 L 651.289062 728.476562 C 651.8125 727.957031 652.855469 727.957031 653.898438 727.957031 C 654.421875 727.957031 655.464844 728.476562 657.027344 729.519531 C 660.15625 731.085938 663.289062 733.171875 666.417969 735.257812 C 667.460938 735.777344 668.503906 736.300781 669.546875 736.820312 C 677.894531 741.515625 686.238281 746.207031 695.105469 751.421875 C 697.714844 752.988281 700.84375 754.550781 703.453125 756.117188 C 709.191406 759.246094 714.925781 762.375 720.664062 765.503906 C 721.707031 766.023438 722.75 766.546875 723.273438 767.066406 C 725.882812 769.152344 727.445312 771.238281 728.488281 774.890625 C 735.269531 797.835938 742.050781 820.257812 748.832031 843.203125 C 747.789062 845.289062 748.3125 847.375 748.3125 848.941406 Z M 748.308594 848.941406 " fill-opacity="1" fill-rule="nonzero"/><path fill="#ffffff" d="M 1065.972656 1127.414062 C 1067.015625 1091.953125 1068.582031 1057.535156 1069.625 1022.59375 C 1068.058594 1023.117188 1067.015625 1023.636719 1065.972656 1024.160156 C 1056.585938 1030.941406 1047.195312 1037.199219 1037.285156 1043.976562 C 1029.980469 1049.191406 1023.199219 1053.886719 1015.898438 1058.578125 C 1013.8125 1060.144531 1011.726562 1060.664062 1008.59375 1062.230469 C 1008.074219 1057.535156 1007.550781 1053.886719 1007.550781 1050.234375 L 1007.550781 1012.6875 C 1007.550781 1010.078125 1007.03125 1007.992188 1004.421875 1006.429688 C 986.167969 996 968.429688 985.570312 950.175781 975.140625 C 949.132812 974.617188 948.089844 974.097656 946.523438 973.574219 C 946 977.746094 944.957031 981.398438 944.957031 984.527344 C 943.914062 1001.214844 942.871094 1017.902344 941.308594 1034.070312 C 940.785156 1038.242188 942.351562 1040.847656 946 1043.457031 C 967.910156 1059.101562 989.816406 1074.746094 1011.726562 1089.867188 C 1025.289062 1099.253906 1038.847656 1108.640625 1052.410156 1118.550781 C 1056.582031 1121.15625 1061.277344 1123.765625 1065.972656 1127.414062 Z M 1065.972656 1127.414062 " fill-opacity="1" fill-rule="nonzero"/><path fill="#ffffff" d="M 1029.980469 623.65625 C 1031.546875 618.441406 1032.589844 613.226562 1034.675781 608.535156 C 1038.328125 600.191406 1036.242188 593.933594 1031.023438 586.632812 C 1017.460938 568.378906 1004.421875 549.605469 990.859375 531.355469 C 978.863281 514.144531 966.867188 496.9375 954.347656 480.769531 C 940.265625 462.519531 925.660156 444.265625 910.53125 426.535156 C 906.359375 421.320312 900.621094 416.628906 895.925781 411.414062 C 886.015625 400.980469 876.628906 390.550781 866.714844 380.121094 C 865.152344 378.558594 864.109375 376.992188 862.023438 374.90625 C 858.890625 380.121094 855.761719 384.816406 852.632812 389.507812 C 851.589844 391.074219 852.113281 392.636719 853.15625 394.203125 C 856.285156 397.851562 858.890625 402.023438 862.023438 405.675781 C 883.929688 433.316406 906.359375 460.433594 927.222656 488.59375 C 956.433594 527.183594 985.121094 566.292969 1013.8125 605.40625 C 1017.464844 610.621094 1021.636719 616.355469 1025.289062 621.570312 C 1025.808594 622.613281 1026.851562 623.65625 1027.375 624.699219 C 1028.9375 624.179688 1029.460938 623.65625 1029.980469 623.65625 Z M 1029.980469 623.65625 " fill-opacity="1" fill-rule="nonzero"/><path fill="#ffffff" d="M 789.519531 815.566406 C 788.996094 827.039062 788.476562 838.511719 788.476562 850.503906 C 840.113281 853.113281 891.234375 856.242188 942.351562 857.804688 C 945.480469 840.597656 946.003906 839.03125 961.652344 822.34375 L 961.652344 821.824219 C 961.652344 821.824219 961.652344 821.300781 961.128906 821.300781 C 904.792969 819.214844 848.460938 817.128906 792.125 815.042969 C 791.082031 815.042969 790.5625 815.566406 789.519531 815.566406 Z M 789.519531 815.566406 " fill-opacity="1" fill-rule="nonzero"/><path fill="#ffffff" d="M 793.691406 975.140625 C 796.300781 966.796875 796.820312 958.453125 797.34375 950.109375 C 798.386719 937.59375 798.386719 925.597656 798.90625 913.082031 C 798.90625 911.519531 798.386719 908.910156 797.34375 907.867188 C 786.910156 897.4375 776.476562 887.007812 766.046875 877.101562 L 763.960938 877.101562 C 750.917969 883.359375 737.355469 889.617188 724.316406 896.394531 C 718.058594 899.523438 714.925781 904.738281 714.925781 912.039062 C 714.925781 916.734375 714.925781 921.425781 714.40625 926.121094 C 714.40625 929.769531 715.96875 931.855469 719.101562 933.421875 C 724.316406 936.027344 729.011719 939.15625 734.226562 941.765625 C 753.003906 952.714844 771.785156 963.144531 790.5625 974.097656 C 791.605469 974.617188 792.125 974.617188 793.691406 975.140625 Z M 793.691406 975.140625 " fill-opacity="1" fill-rule="nonzero"/><path fill="#ffffff" d="M 867.761719 314.9375 C 866.714844 314.414062 866.195312 313.894531 865.671875 313.371094 C 847.9375 303.984375 830.203125 294.078125 811.949219 284.691406 C 806.730469 281.5625 805.6875 282.082031 801.515625 286.777344 C 788.996094 302.941406 776.476562 319.109375 764.480469 335.273438 C 763.4375 336.316406 763.4375 337.359375 762.394531 338.402344 C 765.523438 341.011719 822.902344 367.085938 830.726562 369.691406 C 843.246094 351.441406 855.761719 333.1875 867.761719 314.9375 Z M 867.761719 314.9375 " fill-opacity="1" fill-rule="nonzero"/><path fill="#ffffff" d="M 874.539062 953.757812 C 871.933594 958.453125 869.847656 962.625 867.238281 966.796875 C 866.195312 969.402344 864.628906 971.488281 863.585938 974.097656 C 861.5 978.269531 862.023438 982.441406 865.671875 985.570312 C 871.410156 990.261719 877.671875 995.476562 883.929688 999.648438 C 888.625 1002.777344 890.1875 1002.257812 891.753906 996.519531 C 897.492188 977.746094 902.707031 958.972656 908.445312 939.679688 C 909.488281 935.507812 911.054688 931.855469 912.097656 927.164062 C 910.53125 926.121094 909.488281 925.597656 908.445312 925.078125 C 883.410156 913.605469 857.847656 902.132812 832.289062 890.660156 C 829.683594 889.617188 826.550781 888.574219 823.421875 887.53125 C 820.292969 886.488281 817.164062 887.53125 814.035156 889.09375 C 814.554688 893.789062 816.640625 896.917969 819.773438 899.523438 C 822.902344 902.132812 823.421875 905.261719 822.902344 908.910156 C 822.378906 912.5625 821.859375 915.691406 821.335938 919.863281 C 824.464844 921.425781 827.074219 922.992188 830.203125 925.078125 C 833.332031 926.640625 836.464844 928.207031 839.070312 930.292969 C 843.246094 933.421875 844.289062 936.550781 841.679688 941.242188 C 839.070312 945.414062 836.464844 949.585938 833.332031 953.757812 C 832.8125 954.800781 831.769531 955.84375 830.726562 957.410156 L 839.59375 966.273438 C 841.679688 963.667969 842.722656 961.058594 844.289062 958.453125 C 846.375 955.324219 848.460938 952.195312 850.546875 949.585938 C 853.15625 945.9375 856.804688 945.414062 860.980469 946.980469 C 867.238281 949.585938 870.890625 951.671875 874.542969 953.757812 Z M 874.539062 953.757812 " fill-opacity="1" fill-rule="nonzero"/><path fill="#ffffff" d="M 1019.550781 822.867188 C 1021.113281 827.039062 1022.15625 829.644531 1023.722656 832.253906 C 1027.375 840.597656 1029.980469 848.941406 1030.503906 857.804688 C 1030.503906 858.328125 1030.503906 859.371094 1031.023438 859.890625 C 1035.71875 868.234375 1034.15625 877.621094 1035.199219 887.007812 C 1037.804688 907.347656 1039.890625 927.164062 1041.980469 947.5 C 1041.980469 948.542969 1041.980469 949.585938 1042.5 951.152344 C 1043.542969 954.28125 1044.585938 955.324219 1047.714844 954.800781 C 1051.367188 953.757812 1055.019531 952.714844 1058.671875 951.671875 C 1063.363281 950.109375 1068.058594 948.023438 1073.796875 945.414062 C 1072.230469 937.070312 1071.1875 928.726562 1070.144531 920.382812 C 1067.539062 902.652344 1064.40625 885.445312 1061.277344 867.714844 C 1059.714844 859.371094 1057.625 851.027344 1055.019531 843.203125 C 1050.847656 829.644531 1042.5 823.386719 1028.9375 822.867188 C 1026.328125 823.386719 1023.199219 823.386719 1019.550781 822.867188 Z M 1019.550781 822.867188 " fill-opacity="1" fill-rule="nonzero"/><path fill="#ffffff" d="M 979.90625 954.800781 C 983.035156 946.980469 984.601562 939.15625 986.167969 931.335938 C 990.339844 909.953125 994.511719 889.09375 998.683594 867.714844 C 1000.25 858.847656 1000.769531 850.503906 996.597656 842.160156 C 995.554688 840.597656 995.035156 838.511719 993.46875 837.46875 C 990.859375 834.339844 988.253906 833.296875 984.601562 835.382812 C 977.820312 839.554688 971.5625 844.769531 969.476562 853.632812 C 962.695312 879.1875 956.433594 905.261719 950.175781 930.8125 C 947.566406 942.285156 947.046875 942.285156 958.519531 946.457031 C 965.300781 949.585938 972.605469 952.195312 979.90625 954.800781 Z M 979.90625 954.800781 " fill-opacity="1" fill-rule="nonzero"/><path fill="#ffffff" d="M 905.316406 162.140625 C 894.363281 168.398438 871.410156 202.816406 867.238281 218.984375 C 883.929688 230.976562 901.664062 241.929688 920.441406 252.359375 C 920.964844 250.792969 921.484375 250.273438 921.484375 249.230469 C 922.007812 232.019531 923.050781 214.8125 923.574219 197.601562 C 923.574219 196.039062 923.574219 194.472656 923.050781 192.910156 C 919.921875 181.4375 912.617188 171.527344 905.316406 162.140625 Z M 905.316406 162.140625 " fill-opacity="1" fill-rule="nonzero"/><path fill="#ffffff" d="M 903.75 264.351562 C 901.144531 262.789062 899.578125 260.703125 897.492188 259.660156 C 881.84375 250.792969 865.671875 241.929688 850.023438 233.585938 C 844.289062 230.457031 842.722656 230.976562 838.550781 235.671875 C 833.332031 241.929688 828.640625 248.1875 823.421875 254.964844 C 822.378906 256.53125 821.335938 258.617188 820.292969 260.179688 C 824.988281 265.917969 865.152344 288.863281 879.757812 294.597656 C 887.058594 285.210938 895.40625 274.78125 903.75 264.351562 Z M 903.75 264.351562 " fill-opacity="1" fill-rule="nonzero"/><path fill="#ffffff" d="M 836.464844 699.792969 C 827.597656 723.261719 818.207031 746.730469 810.382812 771.238281 C 829.683594 772.804688 847.9375 772.804688 867.238281 772.28125 C 857.328125 747.773438 847.417969 723.785156 836.464844 699.792969 Z M 836.464844 699.792969 " fill-opacity="1" fill-rule="nonzero"/><path fill="#ffffff" d="M 923.050781 315.457031 C 921.484375 329.539062 920.964844 343.097656 923.050781 356.65625 C 923.574219 359.261719 924.617188 361.871094 926.703125 363.433594 C 937.132812 372.300781 949.132812 378.035156 961.128906 385.859375 C 961.652344 369.171875 962.171875 353.527344 962.695312 338.402344 C 949.652344 331.101562 936.613281 323.28125 923.050781 315.457031 Z M 923.050781 315.457031 " fill-opacity="1" fill-rule="nonzero"/><path fill="#ffffff" d="M 936.089844 284.167969 C 944.4375 295.640625 952.261719 307.113281 967.910156 310.242188 C 975.734375 311.808594 982.515625 309.722656 988.773438 305.027344 C 989.816406 303.984375 990.859375 301.898438 990.859375 300.335938 C 990.859375 299.292969 988.253906 298.25 986.6875 298.25 C 973.125 296.683594 961.128906 291.992188 948.609375 286.777344 C 944.957031 284.167969 940.785156 282.605469 936.089844 284.167969 Z M 936.089844 284.167969 " fill-opacity="1" fill-rule="nonzero"/><path fill="#ffffff" d="M 1046.671875 284.691406 C 1037.804688 293.035156 1027.894531 295.640625 1017.464844 298.25 C 1013.8125 299.292969 1013.289062 301.898438 1015.898438 304.507812 C 1019.550781 308.15625 1024.242188 309.199219 1029.460938 307.636719 C 1037.285156 306.070312 1046.152344 294.597656 1046.671875 284.691406 Z M 1046.671875 284.691406 " fill-opacity="1" fill-rule="nonzero"/><path fill="#ffffff" d="M 1089.445312 851.027344 C 1089.96875 848.417969 1090.488281 846.332031 1091.011719 844.246094 C 1091.53125 839.554688 1091.53125 834.859375 1091.53125 830.6875 C 1091.53125 828.082031 1090.488281 825.996094 1087.878906 825.996094 C 1084.230469 825.472656 1080.578125 825.472656 1075.363281 824.953125 C 1080.578125 834.339844 1084.75 842.160156 1089.445312 851.027344 Z M 1089.445312 851.027344 " fill-opacity="1" fill-rule="nonzero"/><path fill="#fcee09" d="M 1386.242188 918.820312 C 1382.070312 1043.976562 1330.953125 1156.617188 1251.144531 1240.578125 L 1191.683594 1207.203125 L 1191.683594 1203.03125 C 1186.464844 1182.691406 1180.726562 1162.355469 1175.511719 1142.015625 C 1171.859375 1128.980469 1172.902344 1125.851562 1184.902344 1119.59375 C 1205.765625 1108.121094 1227.152344 1096.648438 1248.539062 1084.652344 C 1254.277344 1081.523438 1260.011719 1077.875 1265.75 1074.746094 C 1270.96875 1071.617188 1271.488281 1071.09375 1269.402344 1064.835938 C 1266.273438 1053.886719 1263.144531 1042.933594 1260.011719 1031.984375 C 1240.191406 959.496094 1220.371094 887.53125 1200.550781 815.566406 C 1192.203125 785.320312 1184.378906 755.074219 1175.511719 725.347656 C 1160.386719 672.15625 1146.300781 618.964844 1131.175781 565.773438 C 1124.914062 542.304688 1118.132812 519.359375 1111.355469 495.894531 C 1109.265625 489.636719 1107.179688 482.855469 1105.09375 476.597656 C 1104.050781 472.425781 1101.964844 469.820312 1098.3125 467.734375 C 1084.230469 458.347656 1070.144531 448.960938 1056.0625 439.574219 C 1053.976562 438.53125 1052.410156 436.964844 1050.847656 434.878906 C 1252.710938 502.152344 1394.066406 695.621094 1386.242188 918.820312 Z M 1386.242188 918.820312 " fill-opacity="1" fill-rule="nonzero"/><path fill="#fcee09" d="M 676.066406 469.664062 L 675.546875 470.183594 C 675.546875 470.707031 675.023438 471.226562 674.503906 472.269531 C 674.503906 472.792969 673.980469 472.792969 673.457031 473.835938 C 673.109375 474.183594 672.9375 474.53125 672.9375 474.878906 C 671.894531 475.921875 671.371094 477.484375 670.328125 479.050781 C 669.285156 481.136719 667.199219 483.742188 665.632812 486.351562 C 637.988281 529.632812 588.800781 617.453125 576.4375 637.058594 L 599.234375 648.742188 C 601.320312 654.476562 605.128906 670.957031 608.777344 696.507812 L 608.777344 697.03125 L 657.808594 715.804688 L 652.59375 728.839844 C 651.550781 728.320312 651.03125 728.320312 649.984375 729.363281 C 649.984375 729.363281 649.464844 729.363281 649.464844 729.882812 L 648.941406 730.40625 C 648.421875 730.929688 648.421875 731.449219 648.421875 731.972656 C 648.421875 732.492188 647.898438 732.492188 647.898438 733.015625 C 642.683594 746.050781 637.46875 758.566406 632.25 771.605469 C 631.730469 772.648438 631.730469 773.691406 631.207031 774.734375 C 630.6875 775.777344 630.6875 776.820312 630.164062 777.863281 C 629.644531 779.425781 629.644531 780.46875 629.644531 781.511719 C 629.644531 782.554688 629.644531 784.121094 630.164062 785.164062 L 630.164062 785.683594 L 522.191406 711.632812 C 522.191406 711.632812 481.503906 683.992188 476.289062 680.34375 L 475.765625 679.820312 C 476.289062 679.300781 476.808594 678.777344 477.332031 678.257812 C 480.460938 674.085938 484.113281 668.347656 488.808594 660.527344 C 489.328125 659.484375 489.851562 658.960938 490.371094 657.917969 C 505.5 633.410156 530.015625 594.296875 566.527344 555.1875 L 567.050781 554.664062 C 590 530.15625 618.167969 505.125 652.070312 484.265625 C 652.59375 483.742188 653.117188 483.742188 653.636719 483.222656 C 660.417969 478.007812 667.71875 473.835938 676.066406 469.664062 Z M 676.066406 469.664062 " fill-opacity="1" fill-rule="nonzero"/></svg>